<svg xmlns="http://www.w3.org/2000/svg" xmlns:xlink="http://www.w3.org/1999/xlink" version="1.1" x="0px" y="0px" viewBox="0 0 1347.7 221" enable-background="new 0 0 1347.7 221" xml:space="preserve"><g id="Layer_3"/><g id="Layer_4"/><g id="Layer_5"/><g id="Layer_6"/><g id="Layer_9"/><g id="Layer_2"><g><g><g><path fill="#55B949" d="M487.1 140.9c-0.3 0-0.6-0.2-0.8-0.4l-9.1-15.5l-45.8 3.4c-0.5 0-0.9-0.3-0.9-0.8c0-0.5 0.3-0.9 0.8-0.9 l46.3-3.5c0.3 0 0.6 0.1 0.8 0.4l9.4 16c0.2 0.4 0.1 0.9-0.3 1.2C487.4 140.9 487.2 140.9 487.1 140.9z"/></g><g><path fill="#55B949" d="M471.7 125.3c-0.3 0-0.6-0.2-0.7-0.4l-7.2-11.9l-47.2 3.5c-0.5 0-0.9-0.3-0.9-0.8c0-0.5 0.3-0.9 0.8-0.9 l47.8-3.6c0.3 0 0.6 0.1 0.8 0.4l7.4 12.4c0.2 0.4 0.1 0.9-0.3 1.2C472 125.2 471.9 125.3 471.7 125.3z"/></g><g><path fill="#55B949" d="M458.5 112.9c-0.3 0-0.6-0.1-0.7-0.4l-7.3-11.9l-34.8 2.6c-0.5 0-0.9-0.3-0.9-0.8c0-0.5 0.3-0.9 0.8-0.9 l35.3-2.7c0.3 0 0.6 0.1 0.8 0.4l7.6 12.4c0.3 0.4 0.1 0.9-0.3 1.2C458.8 112.9 458.6 112.9 458.5 112.9z"/></g><g><path fill="#55B949" d="M414.6 91.4c-0.5 0-0.8-0.3-0.9-0.8c0-0.5 0.3-0.9 0.8-0.9l23.3-1.7c0.5 0 0.9 0.3 0.9 0.8 s-0.3 0.9-0.8 0.9L414.6 91.4C414.7 91.4 414.7 91.4 414.6 91.4z"/></g><g><path fill="#55B949" d="M444.2 100.5c-0.3 0-0.6-0.1-0.7-0.4l-4.2-6.6c-0.3-0.4-0.1-0.9 0.3-1.2c0.4-0.3 0.9-0.1 1.2 0.3 l4.2 6.6c0.3 0.4 0.1 0.9-0.3 1.2C444.5 100.5 444.3 100.5 444.2 100.5z"/></g><g><path fill="#55B949" d="M431.6 89.7c-0.3 0-0.6-0.1-0.7-0.4l-7.3-11.9l-9.9 0.7c-0.5 0-0.9-0.3-0.9-0.8s0.3-0.9 0.8-0.9 l10.5-0.8c0.3 0 0.6 0.1 0.8 0.4l7.5 12.4c0.2 0.4 0.1 0.9-0.3 1.2C432 89.7 431.8 89.7 431.6 89.7z"/></g><g><path fill="#55B949" d="M320.3 153.7c-0.1 0-0.2 0-0.3-0.1c-0.4-0.2-0.6-0.7-0.5-1.1l7.4-17.5c0.1-0.3 0.4-0.5 0.7-0.5l59.9-4.5 c0.5 0 0.9 0.3 0.9 0.8s-0.3 0.9-0.8 0.9l-59.4 4.5l-7.1 17C320.9 153.5 320.6 153.7 320.3 153.7z"/></g><g><path fill="#55B949" d="M339.2 122.3c-0.5 0-0.8-0.3-0.9-0.8c0-0.5 0.3-0.9 0.8-0.9l47.4-3.6c0.5 0 0.9 0.3 0.9 0.8 s-0.3 0.9-0.8 0.9L339.2 122.3C339.2 122.3 339.2 122.3 339.2 122.3z"/></g><g><path fill="#55B949" d="M333 135.8c-0.1 0-0.2 0-0.3-0.1c-0.4-0.2-0.6-0.7-0.4-1.1l3-6.8c0.2-0.4 0.7-0.6 1.1-0.4 c0.4 0.2 0.6 0.7 0.4 1.1l-3 6.8C333.6 135.6 333.3 135.8 333 135.8z"/></g><g><path fill="#55B949" d="M344.7 121.4c-0.1 0-0.2 0-0.3-0.1c-0.4-0.2-0.6-0.7-0.5-1.1l5.8-13.4c0.1-0.3 0.4-0.5 0.7-0.5l35.1-2.6 c0.5 0 0.9 0.3 0.9 0.8s-0.3 0.9-0.8 0.9l-34.5 2.6l-5.6 12.9C345.4 121.2 345.1 121.4 344.7 121.4z"/></g><g><path fill="#55B949" d="M357 107.4c-0.1 0-0.2 0-0.3-0.1c-0.4-0.2-0.7-0.7-0.5-1.1l4.9-12c0.1-0.3 0.4-0.5 0.7-0.5l22.8-1.7 c0.5 0 0.9 0.3 0.9 0.8s-0.3 0.9-0.8 0.9l-22.3 1.7l-4.7 11.5C357.6 107.2 357.3 107.4 357 107.4z"/></g><g><path fill="#55B949" d="M367.8 94.5c-0.1 0-0.2 0-0.3-0.1c-0.4-0.2-0.6-0.7-0.5-1.1l5.8-13.4c0.1-0.3 0.4-0.5 0.7-0.5l10.2-0.8 c0.5 0 0.9 0.3 0.9 0.8s-0.3 0.9-0.8 0.9l-9.7 0.7L368.6 94C368.4 94.3 368.1 94.5 367.8 94.5z"/></g><g><path fill="#55B949" d="M389.1 146.7c-0.5 0-0.8-0.3-0.9-0.8l-5.8-77.5c0-0.5 0.3-0.9 0.8-0.9c0.5 0 0.9 0.3 0.9 0.8l5.8 77.5 C390.1 146.2 389.7 146.6 389.1 146.7C389.2 146.7 389.2 146.7 389.1 146.7z"/></g><g><path fill="#55B949" d="M393.3 146.3c-0.4 0-0.8-0.3-0.9-0.8l-5.2-65.8c0-0.5 0.3-0.9 0.8-0.9c0.5 0 0.9 0.3 0.9 0.8l5.2 65.8 C394.2 145.8 393.9 146.2 393.3 146.3C393.4 146.3 393.4 146.3 393.3 146.3z"/></g><g><path fill="#55B949" d="M413.2 145.1c-0.5 0-0.8-0.3-0.9-0.8l-4.8-66.1c0-0.5 0.3-0.9 0.8-0.9c0.5 0 0.9 0.3 0.9 0.8l4.8 66.1 C414.1 144.7 413.7 145.1 413.2 145.1C413.2 145.1 413.2 145.1 413.2 145.1z"/></g><g><path fill="#55B949" d="M418.3 144.7c-0.5 0-0.8-0.3-0.9-0.8l-5.6-77.7c0-0.5 0.3-0.9 0.8-0.9c0.5 0 0.9 0.3 0.9 0.8l5.6 77.7 C419.2 144.3 418.8 144.7 418.3 144.7C418.3 144.7 418.3 144.7 418.3 144.7z"/></g><g><path fill="#55B949" d="M383.1 66c-0.5 0-0.8-0.3-0.9-0.8l-0.5-6.6c0-0.5 0.3-0.9 0.8-0.9c0.5 0 0.9 0.3 0.9 0.8l0.5 6.6 C384 65.5 383.6 66 383.1 66C383.1 66 383.1 66 383.1 66z"/></g><g><path fill="#55B949" d="M412.4 63.8c-0.5 0-0.8-0.3-0.9-0.8l-0.5-6.6c0-0.5 0.3-0.9 0.8-0.9c0.5 0 0.9 0.3 0.9 0.8l0.5 6.6 C413.3 63.3 412.9 63.8 412.4 63.8C412.4 63.8 412.4 63.8 412.4 63.8z"/></g><g><path fill="#55B949" d="M380.9 69c-0.2 0-0.4-0.1-0.6-0.2c-0.2-0.1-0.3-0.4-0.3-0.6l-0.2-2.7c0-0.2 0.1-0.5 0.2-0.6 s0.4-0.3 0.6-0.3l33.8-2.5c0.2 0 0.5 0.1 0.6 0.2c0.2 0.2 0.3 0.4 0.3 0.6l0.2 2.7c0 0.5-0.3 0.9-0.8 0.9L380.9 69 C380.9 69 380.9 69 380.9 69z M381.6 66.3l0.1 1l32.1-2.4l-0.1-1L381.6 66.3z"/></g><g><path fill="#55B949" d="M380.1 58.8c-0.2 0-0.4-0.1-0.6-0.2c-0.2-0.1-0.3-0.4-0.3-0.6l-0.2-2.7c0-0.2 0.1-0.5 0.2-0.6 s0.4-0.3 0.6-0.3l33.8-2.5c0.5 0 0.9 0.3 0.9 0.8l0.2 2.7c0 0.2-0.1 0.5-0.2 0.6s-0.4 0.3-0.6 0.3L380.1 58.8 C380.2 58.8 380.1 58.8 380.1 58.8z M380.8 56l0.1 1l32.1-2.4l-0.1-1L380.8 56z"/></g><g><path fill="#55B949" d="M384.3 80.6c-0.5 0-0.8-0.3-0.9-0.8c0-0.5 0.3-0.9 0.8-0.9l29-2.2c0.5 0 0.9 0.3 0.9 0.8 s-0.3 0.9-0.8 0.9L384.3 80.6C384.4 80.6 384.4 80.6 384.3 80.6z"/></g><g><path fill="#55B949" d="M389.1 87.9c-0.5 0-0.8-0.3-0.9-0.8c0-0.5 0.3-0.9 0.8-0.9l19.3-1.5c0.5 0 0.9 0.3 0.9 0.8 s-0.3 0.9-0.8 0.9L389.1 87.9C389.2 87.9 389.2 87.9 389.1 87.9z"/></g><g><path fill="#55B949" d="M389.8 96.3c-0.5 0-0.8-0.3-0.9-0.8c0-0.5 0.3-0.9 0.8-0.9l19.3-1.5c0.5 0 0.9 0.3 0.9 0.8 s-0.3 0.9-0.8 0.9L389.8 96.3C389.8 96.3 389.8 96.3 389.8 96.3z"/></g><g><path fill="#55B949" d="M390.4 104.8c-0.5 0-0.8-0.3-0.9-0.8c0-0.5 0.3-0.9 0.8-0.9l19.3-1.5c0.5 0 0.9 0.3 0.9 0.8 s-0.3 0.9-0.8 0.9L390.4 104.8C390.5 104.8 390.4 104.8 390.4 104.8z"/></g><g><path fill="#55B949" d="M391 112.9c-0.5 0-0.8-0.3-0.9-0.8c0-0.5 0.3-0.9 0.8-0.9l19.3-1.5c0.5 0 0.9 0.3 0.9 0.8 s-0.3 0.9-0.8 0.9L391 112.9C391.1 112.9 391 112.9 391 112.9z"/></g><g><path fill="#55B949" d="M391.7 121.4c-0.5 0-0.8-0.3-0.9-0.8c0-0.5 0.3-0.9 0.8-0.9l19.3-1.5c0.5 0 0.9 0.3 0.9 0.8 c0 0.5-0.3 0.9-0.8 0.9L391.7 121.4C391.7 121.4 391.7 121.4 391.7 121.4z"/></g><g><path fill="#55B949" d="M392.3 129.9c-0.5 0-0.8-0.3-0.9-0.8c0-0.5 0.3-0.9 0.8-0.9l19.3-1.5c0.5 0 0.9 0.3 0.9 0.8 s-0.3 0.9-0.8 0.9L392.3 129.9C392.3 129.9 392.3 129.9 392.3 129.9z"/></g><g><path fill="#55B949" d="M392.9 138c-0.5 0-0.8-0.3-0.9-0.8c0-0.5 0.3-0.9 0.8-0.9l19.3-1.5c0.5 0 0.9 0.3 0.9 0.8 c0 0.5-0.3 0.9-0.8 0.9L392.9 138C392.9 138 392.9 138 392.9 138z"/></g><g><path fill="#55B949" d="M395.6 78.7c-0.5 0-0.8-0.3-0.9-0.8l-0.6-7.7c0-0.5 0.3-0.9 0.8-0.9l5.1-0.4c0.2 0 0.5 0.1 0.6 0.2 c0.2 0.1 0.3 0.4 0.3 0.6l0.6 7.7c0 0.5-0.3 0.9-0.8 0.9c-0.5 0-0.9-0.3-0.9-0.8l-0.5-6.8l-3.4 0.3l0.5 6.8 C396.5 78.3 396.1 78.7 395.6 78.7C395.6 78.7 395.6 78.7 395.6 78.7z"/></g></g><g><path fill="#55B949" d="M429.5 128.2l2.9-4.3c0 0 0 0 0.1 0l1.8-0.2c0 0 0.1 0 0.1 0c0 0 0 0.1 0 0.1l-3 4.2l3.9 3.5 c0 0 0 0 0 0.1c0 0 0 0-0.1 0l-1.8 0.2c0 0 0 0-0.1 0l-2.9-2.6c0 0 0 0 0 0L429.5 128.2C429.5 128.3 429.5 128.2 429.5 128.2"/></g><g><path fill="#55B949" d="M439.1 91.7l5.1 1c0 0 0 0 0 0l0.9 1.6c0 0 0 0.1 0 0.1c0 0 0 0-0.1 0l-5.1-1l-1.6 5c0 0 0 0-0.1 0 c0 0-0.1 0-0.1 0l-0.9-1.6c0 0 0 0 0-0.1l1.2-3.7c0 0 0 0 0 0L439.1 91.7C439.1 91.7 439.1 91.7 439.1 91.7"/></g><g><path fill="#55B949" d="M336.8 126.2l2.3 4.7c0 0 0 0 0 0.1l-0.7 1.7c0 0 0 0-0.1 0c0 0 0 0-0.1 0l-2.2-4.7l-5 1.7 c0 0-0.1 0-0.1 0c0 0 0 0 0-0.1l0.7-1.7c0 0 0 0 0 0l3.7-1.2c0 0 0 0 0 0L336.8 126.2C336.8 126.2 336.8 126.2 336.8 126.2"/></g></g><g><g><path fill="#55B949" d="M1040.8 83.4C1040.7 83.4 1040.7 83.4 1040.8 83.4l-74.2-7.3c-0.2 0-0.4-0.1-0.6-0.3 c-0.1-0.2-0.2-0.4-0.2-0.6L967 63c0.5-4.6 6.3-7 17.8-7.2c0 0 0 0 0 0c0.5 0 0.9 0.4 0.9 0.9c0 0.5-0.4 0.9-0.9 0.9 c-10.3 0.2-15.8 2.1-16.1 5.6l-1.1 11.3l72.3 7.1l1.1-11.3c0.8-8.1-25.1-10.6-34.9-11.6c-5.8-0.6-10.7-0.9-14.9-1.1 c-0.5 0-0.9-0.4-0.8-0.9c0-0.5 0.4-0.8 0.9-0.8c4.2 0.2 9.2 0.5 15 1.1c18.5 1.8 37.3 4.8 36.4 13.5l-1.2 12.2 C1041.6 83.1 1041.2 83.4 1040.8 83.4z"/></g><g><path fill="#55B949" d="M1031.7 94.8c-0.2 0-0.3 0-0.5 0l-22.7-2.2c-0.5 0-0.8-0.5-0.8-0.9c0-0.5 0.5-0.8 0.9-0.8l22.7 2.2 c0.7 0.1 1.4-0.1 2-0.6c0.6-0.4 0.9-1 1-1.7l0.8-8.6c0-0.5 0.5-0.8 0.9-0.8c0.5 0 0.8 0.5 0.8 0.9l-0.8 8.6 c-0.1 1.2-0.7 2.2-1.7 2.9C1033.6 94.5 1032.7 94.8 1031.7 94.8z"/></g><g><path fill="#55B949" d="M1008.6 92.5C1008.6 92.5 1008.5 92.5 1008.6 92.5l-35.2-3.5c-1.2-0.1-2.2-0.7-2.9-1.5 c-0.7-0.9-1-2-0.9-3.1l0.8-8.6c0-0.5 0.5-0.8 0.9-0.8c0.5 0 0.8 0.5 0.8 0.9l-0.8 8.6c-0.1 0.7 0.1 1.4 0.5 1.9 c0.4 0.5 1 0.8 1.7 0.9l35.1 3.5c0.5 0 0.8 0.5 0.8 0.9C1009.4 92.2 1009 92.5 1008.6 92.5z"/></g><g><path fill="#55B949" d="M1033.1 113.7C1033 113.7 1033 113.7 1033.1 113.7c-0.6-0.1-0.9-0.5-0.9-1l0.9-8.8c0.1-1.5-0.8-2.8-2.2-3 l-21.2-2.1c-0.2 0-0.3-0.1-0.4-0.2l-7-5.4l-8.4 3.9c-0.1 0.1-0.3 0.1-0.5 0.1l-20.5-2c-0.7-0.1-1.4 0.2-1.9 0.6 c-0.5 0.5-0.9 1.1-1 1.8l-0.9 8.7c0 0.5-0.5 0.8-0.9 0.8c-0.5 0-0.8-0.5-0.8-0.9l0.9-8.7c0.1-1.1 0.7-2.2 1.6-3 c0.9-0.8 2.1-1.2 3.2-1l20.2 2l8.6-4c0.3-0.1 0.6-0.1 0.9 0.1l7.2 5.6l20.9 2.1c1.2 0.1 2.2 0.7 2.9 1.7c0.7 0.9 1 2.1 0.9 3.2 l-0.9 8.8C1033.9 113.4 1033.5 113.7 1033.1 113.7z"/></g><g><path fill="#55B949" d="M1038.3 108.7C1038.2 108.7 1038.2 108.6 1038.3 108.7c-0.6-0.1-0.9-0.5-0.9-1l2.5-24.9l-5.3-3.9l-6.8 3 c-0.3 0.1-0.6 0.1-0.9-0.1l-5.6-4.2l-8 2.9c-0.3 0.1-0.6 0.1-0.8-0.1l-6.4-4.3l-8.4 2.9c-0.2 0.1-0.5 0.1-0.8-0.1l-7-4.4 l-8.6 2.9c-0.3 0.1-0.5 0-0.8-0.1l-6.4-4.3l-6.8 2.8l-2.5 25c0 0.5-0.5 0.8-0.9 0.8c-0.5 0-0.8-0.5-0.8-0.9l2.5-25.5 c0-0.3 0.2-0.6 0.5-0.7l7.7-3.2c0.3-0.1 0.6-0.1 0.8 0.1l6.4 4.4l8.6-2.9c0.2-0.1 0.5-0.1 0.7 0.1l7 4.4l8.4-2.9 c0.3-0.1 0.5-0.1 0.8 0.1l6.4 4.3l8-2.9c0.3-0.1 0.6-0.1 0.8 0.1l5.5 4.2l6.8-3c0.3-0.1 0.6-0.1 0.9 0.1l6.2 4.5 c0.2 0.2 0.4 0.5 0.3 0.8l-2.5 25.4C1039.1 108.3 1038.7 108.7 1038.3 108.7z"/></g><g><path fill="#55B949" d="M996.6 120.4C996.5 120.4 996.5 120.4 996.6 120.4c-0.6-0.1-0.9-0.5-0.9-1l2.1-21.8 c0-0.5 0.5-0.8 0.9-0.8c0.5 0 0.8 0.5 0.8 0.9l-2.1 21.8C997.4 120.1 997 120.4 996.6 120.4z"/></g><g><path fill="#55B949" d="M1002.2 120.7C1002.2 120.7 1002.2 120.7 1002.2 120.7c-0.6-0.1-0.9-0.5-0.9-1l2.1-21.5 c0-0.5 0.5-0.8 0.9-0.8c0.5 0 0.8 0.5 0.8 0.9l-2.1 21.5C1003 120.3 1002.6 120.7 1002.2 120.7z"/></g><g><path fill="#55B949" d="M1007.4 121.8C1007.4 121.8 1007.4 121.8 1007.4 121.8c-0.6-0.1-0.9-0.5-0.9-1l2.2-22.7 c0-0.5 0.5-0.8 0.9-0.8c0.5 0 0.8 0.5 0.8 0.9l-2.2 22.7C1008.3 121.5 1007.9 121.8 1007.4 121.8z"/></g><g><path fill="#55B949" d="M1035.4 136.3C1035.4 136.3 1035.3 136.3 1035.4 136.3l-22.8-2.2c-0.5 0-0.8-0.5-0.8-0.9 c0-0.5 0.5-0.8 0.9-0.8l22.7 2.2c0.5 0 0.8 0.5 0.8 0.9C1036.2 136 1035.8 136.3 1035.4 136.3z"/></g><g><path fill="#55B949" d="M1031.3 147.6c-0.1 0-0.3 0-0.4 0l-67.4-6.6c-2.2-0.2-4-2.4-3.7-4.7l0.2-1.6c0-0.2 0.1-0.4 0.3-0.6 c0.2-0.1 0.4-0.2 0.6-0.2l74.1 7.3c0.2 0 0.4 0.1 0.6 0.3c0.1 0.2 0.2 0.4 0.2 0.6l-0.2 1.6 C1035.4 145.8 1033.5 147.6 1031.3 147.6z M961.6 135.7l-0.1 0.7c-0.1 1.4 0.9 2.6 2.2 2.8l67.4 6.6c1.3 0.1 2.7-1 2.8-2.3 l0.1-0.7L961.6 135.7z"/></g><g><path fill="#55B949" d="M960.7 86.6c-0.1 0-0.1 0-0.2 0l-4.7-0.5c-0.6-0.1-1.1-0.3-1.5-0.7c-0.3-0.3-0.4-0.7-0.4-1.2l0.9-9 c0.1-1.1 1.3-1.8 2.2-1.7l4.7 0.5c1 0.1 1.8 1 1.7 2l-0.9 9C962.4 85.9 961.7 86.6 960.7 86.6z M955.7 84.3 c0.1 0 0.2 0.1 0.3 0.1l4.8 0.5c0.1 0 0.1 0 0.1 0l0.9-9c0-0.1-0.1-0.1-0.1-0.1l-4.7-0.5c-0.2 0-0.3 0.1-0.3 0.1L955.7 84.3z"/></g><g><path fill="#55B949" d="M1049.2 95.3c-0.1 0-0.1 0-0.2 0l-4.7-0.5c-1-0.1-1.7-0.9-1.6-1.9l0.9-9c0.1-1 0.8-1.7 1.8-1.7 c0 0 0.1 0 0.2 0l4.7 0.5c0.5 0 1 0.3 1.3 0.7c0.3 0.4 0.4 0.8 0.4 1.3l-0.9 9C1050.8 94.6 1050.1 95.3 1049.2 95.3z M1045.3 83.9c0 0 0 0 0 0.1l-0.9 9l4.8 0.5c0 0 0.1 0 0.1 0l0.8-9c0 0 0-0.1 0-0.1L1045.3 83.9z"/></g><g><path fill="#55B949" d="M1041.7 121.4C1041.7 121.4 1041.7 121.4 1041.7 121.4c-0.6-0.1-0.9-0.5-0.9-1l0.7-6.8 c0.2-2.4-1.5-4.5-3.9-4.8l-4-0.4c-0.5 0-0.8-0.5-0.8-0.9c0-0.5 0.5-0.8 0.9-0.8l4 0.4c1.6 0.2 3.1 0.9 4.1 2.2 c1 1.3 1.5 2.8 1.4 4.4l-0.7 6.8C1042.5 121.1 1042.2 121.4 1041.7 121.4z"/></g><g><path fill="#55B949" d="M958.3 113.2C958.3 113.2 958.3 113.2 958.3 113.2c-0.6-0.1-0.9-0.5-0.9-1l0.7-6.8 c0.2-1.6 0.9-3.1 2.2-4.1c1.2-1 2.8-1.5 4.4-1.4l4.1 0.4c0.5 0 0.8 0.5 0.8 0.9c0 0.5-0.5 0.8-0.9 0.8l-4.1-0.4 c-1.1-0.1-2.2 0.2-3.1 1s-1.4 1.8-1.6 2.9l-0.7 6.8C959.1 112.9 958.8 113.2 958.3 113.2z"/></g><g><path fill="#55B949" d="M963.8 146.6c-0.1 0-0.2 0-0.3 0l-5-0.5c-0.9-0.1-1.8-0.6-2.5-1.4c-0.6-0.8-0.9-1.8-0.9-2.7l1.6-16.3 c0-0.5 0.5-0.8 0.9-0.8c0.5 0 0.8 0.5 0.8 0.9l-1.6 16.3c0 0.5 0.1 1 0.5 1.4c0.3 0.4 0.8 0.7 1.3 0.8l5 0.5c1 0.1 1.9-0.8 2-1.8 l0.3-2.6c0-0.5 0.5-0.8 0.9-0.8c0.5 0 0.8 0.5 0.8 0.9l-0.3 2.6C967.3 145.1 965.7 146.6 963.8 146.6z"/></g><g><path fill="#55B949" d="M1035.2 153.6c-0.1 0-0.2 0-0.3 0l-5-0.5c-1.9-0.2-3.3-2-3.1-4.1l0.3-2.6c0-0.5 0.5-0.8 0.9-0.8 c0.5 0 0.8 0.5 0.8 0.9l-0.3 2.6c-0.1 1 0.5 2.1 1.5 2.2l5 0.5c0.5 0 0.9-0.1 1.3-0.5c0.4-0.4 0.6-0.8 0.7-1.4l1.6-16.3 c0-0.5 0.5-0.8 0.9-0.8c0.5 0 0.8 0.5 0.8 0.9l-1.6 16.3c-0.1 0.9-0.5 1.8-1.2 2.5C1036.8 153.3 1036 153.6 1035.2 153.6z"/></g><g><path fill="#55B949" d="M984 131.3C984 131.3 984 131.3 984 131.3l-22.6-2.2c-3.1-0.3-5.3-3.1-5-6.2l0.4-4.4 c0-0.5 0.5-0.8 0.9-0.8c0.5 0 0.8 0.5 0.8 0.9l-0.4 4.4c-0.2 2.1 1.4 4.1 3.4 4.3l22.6 2.2c0.5 0 0.8 0.5 0.8 0.9 C984.9 130.9 984.5 131.3 984 131.3z"/></g><g><path fill="#55B949" d="M1036 136.3c-0.2 0-0.4 0-0.5 0c-0.5 0-0.8-0.5-0.8-0.9c0-0.5 0.5-0.8 0.9-0.8c2.1 0.2 4-1.3 4.2-3.5 l0.4-4.4c0-0.5 0.5-0.8 0.9-0.8c0.5 0 0.8 0.5 0.8 0.9l-0.4 4.4C1041.3 134.1 1038.8 136.3 1036 136.3z"/></g><g><path fill="#55B949" d="M991.3 119.9C991.3 119.9 991.2 119.9 991.3 119.9c-0.6-0.1-0.9-0.5-0.9-1l2.2-22.3 c0-0.5 0.5-0.8 0.9-0.8l16.3 1.6c0.5 0 0.8 0.5 0.8 0.9c0 0.5-0.5 0.8-0.9 0.8l-15.5-1.5l-2.1 21.4 C992.1 119.6 991.7 119.9 991.3 119.9z"/></g><g><path fill="#55B949" d="M1005.4 133.1C1005.4 133.1 1005.3 133.1 1005.4 133.1l-14.4-1.4c-0.5 0-0.8-0.5-0.8-0.9l0.7-6.8 c0-0.5 0.5-0.8 0.9-0.8l14.3 1.4c0.2 0 0.4 0.1 0.6 0.3c0.1 0.2 0.2 0.4 0.2 0.6l-0.7 6.8c0 0.2-0.1 0.4-0.3 0.6 C1005.8 133 1005.6 133.1 1005.4 133.1z M992 130l12.6 1.2l0.5-5.1l-12.6-1.2L992 130z"/></g><g><path fill="#55B949" d="M981.2 126.9C981.1 126.9 981.1 126.9 981.2 126.9l-7.4-0.7c-0.3 0-0.5-0.2-0.6-0.4l-1.8-2.6 c-1.1-1.5-2.8-2.5-4.7-2.7l-9.1-0.9c-0.3 0-0.5-0.2-0.7-0.5l-3.6-6.6c-0.2-0.3-0.1-0.6 0-0.9c0.2-0.3 0.5-0.4 0.8-0.4l4.1 0.4 c0.5 0 0.8 0.5 0.8 0.9c0 0.5-0.5 0.8-0.9 0.8l-2.4-0.2l2.6 4.8l8.6 0.8c2.4 0.2 4.6 1.5 5.9 3.5l1.6 2.3l5.1 0.5l-4.5-6.9 c-1.5-2.2-3.2-3.4-5.2-3.6l-3.6-0.4c-0.5 0-0.8-0.5-0.8-0.9c0-0.5 0.5-0.8 0.9-0.8l3.6 0.4c2.6 0.3 4.7 1.7 6.5 4.4l5.5 8.5 c0.2 0.3 0.2 0.6 0 0.9C981.7 126.8 981.5 126.9 981.2 126.9z"/></g><g><path fill="#55B949" d="M981.2 126.9c-0.3 0-0.6-0.1-0.7-0.4l-5.4-8.5c-1.5-2.2-3.2-3.4-5.2-3.6l-3.6-0.4c-0.5 0-0.8-0.5-0.8-0.9 c0-0.5 0.5-0.8 0.9-0.8l3.6 0.4c2.6 0.3 4.7 1.7 6.5 4.4l5.4 8.5c0.3 0.4 0.1 0.9-0.3 1.2C981.5 126.9 981.3 126.9 981.2 126.9z"/></g><g><path fill="#55B949" d="M1023.6 131.1C1023.6 131.1 1023.6 131.1 1023.6 131.1l-7.4-0.7c-0.3 0-0.6-0.3-0.7-0.6 c-0.1-0.3-0.1-0.7 0.2-0.9l7-7.2c2.3-2.3 4.7-3.3 7.3-3l3.7 0.4c0.5 0 0.8 0.5 0.8 0.9c0 0.5-0.5 0.8-0.9 0.8l-3.7-0.4 c-2.1-0.2-4 0.6-5.9 2.5l-5.7 5.9l5.2 0.5l2.2-2c1.7-1.6 4-2.5 6.5-2.2l8.6 0.8l3.5-4.2l-2.5-0.2c-0.5 0-0.8-0.5-0.8-0.9 c0-0.5 0.5-0.8 0.9-0.8l4.1 0.4c0.3 0 0.6 0.2 0.7 0.5c0.1 0.3 0.1 0.6-0.1 0.9l-4.8 5.8c-0.2 0.2-0.5 0.3-0.8 0.3l-9.1-0.9 c-1.9-0.2-3.8 0.5-5.1 1.8l-2.5 2.2C1024 131 1023.8 131.1 1023.6 131.1z"/></g><g><path fill="#55B949" d="M1014.2 140.3c-0.4 0-0.7-0.2-0.8-0.6l-5-16.7c-0.1-0.6-0.5-1-1.1-1l-16-1.6c-0.5 0-1 0.2-1.2 0.7 l-8.2 15.3c-0.2 0.4-0.8 0.6-1.2 0.4c-0.4-0.2-0.6-0.8-0.4-1.2l8.2-15.3c0.5-1.1 1.7-1.8 3-1.7l16 1.6c1.3 0.1 2.3 1.1 2.6 2.3 l5 16.6c0.1 0.5-0.1 0.9-0.6 1.1C1014.4 140.2 1014.3 140.3 1014.2 140.3z"/></g><g><path fill="#55B949" d="M992.1 109.8C992.1 109.8 992.1 109.8 992.1 109.8l-23.7-2.3c-0.5 0-0.8-0.5-0.8-0.9 c0-0.5 0.5-0.8 0.9-0.8l23.7 2.3c0.5 0 0.8 0.5 0.8 0.9C992.9 109.4 992.6 109.8 992.1 109.8z"/></g><g><path fill="#55B949" d="M1032.6 113.8C1032.6 113.8 1032.5 113.8 1032.6 113.8l-24.1-2.4c-0.5 0-0.8-0.5-0.8-0.9 c0-0.5 0.5-0.8 0.9-0.8l24 2.4c0.5 0 0.8 0.5 0.8 0.9C1033.4 113.4 1033 113.8 1032.6 113.8z"/></g><g><path fill="#55B949" d="M1041 79.4C1041 79.4 1040.9 79.4 1041 79.4l-73.8-7.3c-0.5 0-0.8-0.5-0.8-0.9c0-0.5 0.5-0.8 0.9-0.8 l73.8 7.3c0.5 0 0.8 0.5 0.8 0.9C1041.8 79.1 1041.4 79.4 1041 79.4z"/></g><g><path fill="#55B949" d="M977.3 67.5c0 0-0.2 0-0.2 0l-4.6-0.4c-1-0.1-1.8-1-1.7-2l0.2-1.8c0.1-1 0.9-1.7 1.8-1.7c0 0 0.2 0 0.2 0 l4.6 0.4c0.5 0 0.9 0.3 1.3 0.7c0.3 0.4 0.5 0.9 0.4 1.4l-0.2 1.8C979.1 66.7 978.3 67.5 977.3 67.5z M972.9 63.3 c-0.1 0-0.1 0-0.1 0.1l-0.2 1.8c0 0.1 0 0.1 0.1 0.1l4.6 0.4l0 0.9v-0.9c0.1 0 0.1 0 0.1-0.1l0.2-1.8c0-0.1-0.1-0.1-0.1-0.1 L972.9 63.3C972.9 63.3 972.9 63.3 972.9 63.3z"/></g><g><path fill="#55B949" d="M1036.9 73.3c0 0-0.1 0-0.2 0l-4.4-0.4c-1-0.1-1.7-1-1.6-2.1l0.2-1.9c0.1-1 0.9-1.6 2-1.5l4.4 0.4 c0.5 0 0.9 0.2 1.2 0.5c0.4 0.4 0.7 0.9 0.6 1.4l-0.2 1.9C1038.8 72.6 1037.8 73.3 1036.9 73.3z M1032.7 69.1l-0.1 0l-0.1 1.8 c0 0.1 0 0.2 0.1 0.2l4.4 0.4l0 0.9v-0.9c0.1 0 0.3-0.1 0.3-0.2l0.2-1.8c-0.1 0-0.1-0.1-0.3-0.1L1032.7 69.1z"/></g><g><g><path fill="#55B949" d="M1005.4 71.1c-0.1 0-0.2 0-0.4 0c-2.1-0.2-3.6-2.1-3.4-4.1c0.2-2.1 2-3.6 4.1-3.4c1 0.1 1.9 0.6 2.5 1.4 c0.6 0.8 0.9 1.8 0.8 2.8C1009 69.6 1007.4 71.1 1005.4 71.1z M1005.4 65.3c-1.1 0-1.9 0.8-2 1.8c-0.1 1.1 0.7 2.1 1.8 2.2 c1.1 0.1 2.1-0.7 2.2-1.8c0.1-0.5-0.1-1.1-0.5-1.5c-0.3-0.4-0.8-0.7-1.4-0.7C1005.5 65.3 1005.5 65.3 1005.4 65.3z"/></g><g><path fill="#55B949" d="M1017.1 72.2c-0.1 0-0.2 0-0.4 0c-2.1-0.2-3.6-2.1-3.4-4.1c0.2-2.1 2-3.6 4.1-3.4 c2.1 0.2 3.6 2.1 3.4 4.1C1020.6 70.7 1019 72.2 1017.1 72.2z M1017 66.4c-1 0-1.9 0.8-2 1.8c-0.1 1.1 0.7 2.1 1.8 2.2 c1.1 0.1 2.1-0.7 2.2-1.8c0.1-1.1-0.7-2.1-1.8-2.2C1017.2 66.4 1017.1 66.4 1017 66.4z"/></g><g><path fill="#55B949" d="M992.9 69.8c-0.1 0-0.2 0-0.4 0c-1-0.1-1.9-0.6-2.5-1.4c-0.6-0.8-0.9-1.8-0.8-2.8c0.2-2.1 2-3.6 4.1-3.4 c1 0.1 1.9 0.6 2.5 1.4c0.6 0.8 0.9 1.8 0.8 2.8C996.5 68.4 994.8 69.8 992.9 69.8z M992.9 64c-1 0-1.9 0.8-2 1.8 c-0.1 0.5 0.1 1.1 0.5 1.5c0.3 0.4 0.8 0.7 1.4 0.7c1.1 0.1 2.1-0.7 2.2-1.8c0.1-0.5-0.1-1.1-0.5-1.5c-0.3-0.4-0.8-0.7-1.4-0.7 C993 64 993 64 992.9 64z"/></g></g><g><path fill="#55B949" d="M965.3 92C965.2 92 965.2 92 965.3 92l-5.2-0.5c-0.8-0.1-1.5-0.5-2.1-1.2c-0.5-0.7-0.7-1.5-0.6-2.3 l0.2-2.2c0-0.5 0.5-0.8 0.9-0.8c0.5 0 0.8 0.5 0.8 0.9l-0.2 2.2c0 0.4 0.1 0.8 0.3 1.1c0.1 0.2 0.4 0.5 0.8 0.5l5.2 0.5 c0.5 0 0.8 0.5 0.8 0.9C966.1 91.7 965.7 92 965.3 92z"/></g><g><path fill="#55B949" d="M1044.3 99.8c-0.1 0-0.2 0-0.3 0l-4.8-0.5c-0.5 0-0.8-0.5-0.8-1c0-0.5 0.5-0.8 1-0.8l4.7 0.5 c0.7 0.1 1.4-0.6 1.5-1.3l0.2-2.2c0-0.5 0.5-0.8 0.9-0.8c0.5 0 0.8 0.5 0.8 0.9l-0.2 2.2c-0.1 0.8-0.5 1.6-1.1 2.1 C1045.8 99.5 1045 99.8 1044.3 99.8z"/></g><g><path fill="#55B949" d="M976.2 105.5c-0.1 0-0.3 0-0.4 0c-2.4-0.2-4.1-2.4-3.9-4.7c0.2-2.4 2.3-4.1 4.7-3.9 c2.4 0.2 4.1 2.4 3.9 4.7C980.3 103.8 978.5 105.5 976.2 105.5z M976.2 98.6c-1.3 0-2.4 1-2.6 2.3c-0.1 1.4 0.9 2.7 2.3 2.8 c1.5 0.1 2.7-0.9 2.8-2.3c0.1-1.4-0.9-2.7-2.3-2.8C976.4 98.6 976.3 98.6 976.2 98.6z"/></g><g><path fill="#55B949" d="M1026.8 110.5c-0.1 0-0.3 0-0.4 0c-2.4-0.2-4.1-2.4-3.9-4.7c0.2-2.4 2.3-4.1 4.7-3.9 c1.2 0.1 2.2 0.7 2.9 1.6c0.7 0.9 1.1 2 1 3.2C1030.9 108.8 1029 110.5 1026.8 110.5z M1026.8 103.6c-1.3 0-2.4 1-2.6 2.3 c-0.1 1.4 0.9 2.7 2.3 2.8c1.5 0.1 2.7-0.9 2.8-2.3c0.1-0.7-0.1-1.4-0.6-1.9c-0.4-0.5-1.1-0.9-1.8-0.9 C1026.9 103.6 1026.9 103.6 1026.8 103.6z"/></g><g><path fill="#55B949" d="M973.2 93.8c0 0-0.1 0-0.2 0c-1.3-0.1-2.3-1.3-2.2-2.7c0.1-1.3 1.3-2.3 2.7-2.2c1 0.1 2.7 1.5 3.3 2.1 c0.2 0.2 0.3 0.5 0.3 0.7c0 0.3-0.2 0.5-0.4 0.7C976.1 92.8 974.2 93.8 973.2 93.8z M973.3 91.2c-0.4 0-0.7 0-0.7 0.4 c0 0.4 0.2 0.6 0.6 0.6l0 0c0.3 0 0.8-0.1 1.5-0.4C974.1 91.4 973.5 91.2 973.3 91.2C973.3 91.2 973.3 91.2 973.3 91.2z"/></g><g><path fill="#55B949" d="M988.4 95.3c0 0-0.1 0-0.2 0c-0.6-0.1-1.2-0.4-1.6-0.9c-0.4-0.5-0.6-1.1-0.5-1.8c0.1-1.3 1.3-2.3 2.7-2.2 c1 0.1 2.7 1.5 3.3 2.1c0.2 0.2 0.3 0.5 0.3 0.7c0 0.3-0.2 0.5-0.4 0.7C991.4 94.3 989.5 95.3 988.4 95.3z M988.6 92.2 c-0.4 0-0.7 0.3-0.7 0.6c0 0.2 0 0.4 0.2 0.5s0.3 0.2 0.5 0.3l0 0c0.3 0 0.8-0.3 1.5-0.6C989.3 92.6 988.8 92.2 988.6 92.2 C988.6 92.2 988.6 92.2 988.6 92.2z"/></g><g><path fill="#55B949" d="M1029.5 99.4c-0.1 0-0.2 0-0.2 0c-1-0.1-2.7-1.5-3.3-2.1c-0.2-0.2-0.3-0.5-0.3-0.7c0-0.3 0.2-0.5 0.4-0.7 c0.5-0.3 2.4-1.4 3.5-1.4c0 0 0.1 0 0.2 0c1.3 0.1 2.3 1.3 2.2 2.7C1031.7 98.4 1030.7 99.4 1029.5 99.4z M1028 96.8 c0.6 0.5 1.1 0.8 1.4 0.8l0.1 0c0.4 0 0.6-0.3 0.7-0.6c0-0.4-0.2-0.7-0.6-0.8C1029.3 96.3 1028.7 96.5 1028 96.8z"/></g><g><path fill="#55B949" d="M1014.2 97.9c-0.1 0-0.2 0-0.2 0c-1-0.1-2.7-1.5-3.3-2.1c-0.2-0.2-0.3-0.5-0.3-0.7c0-0.3 0.2-0.5 0.4-0.7 c0.5-0.3 2.4-1.4 3.5-1.4c0 0 0.1 0 0.2 0c1.3 0.1 2.3 1.3 2.2 2.7C1016.5 96.9 1015.5 97.9 1014.2 97.9z M1012.8 95.3 c0.6 0.5 1.1 0.8 1.4 0.8l0.1 0c0.4 0 0.6-0.3 0.7-0.6c0-0.4-0.2-0.7-0.6-0.8C1014 94.8 1013.4 95 1012.8 95.3z"/></g><g><path fill="#55B949" d="M963.7 126.2c0 0-0.1 0-0.2 0c-0.6-0.1-1.2-0.4-1.6-0.9c-0.4-0.5-0.6-1.1-0.5-1.8 c0.1-1.3 1.3-2.3 2.7-2.2c1 0.1 2.7 1.5 3.3 2.1c0.2 0.2 0.3 0.5 0.3 0.7c0 0.3-0.2 0.5-0.4 0.7 C966.6 125.1 964.8 126.2 963.7 126.2z M963.8 123.2c-0.4 0-0.7 0.2-0.7 0.6c0 0.2 0 0.3 0.2 0.5s0.3 0.2 0.5 0.2l0 0 c0.2 0 0.8-0.2 1.5-0.5C964.6 123.5 964.1 123.2 963.8 123.2C963.8 123.2 963.8 123.2 963.8 123.2z"/></g><g><path fill="#55B949" d="M1034.6 133.2c-0.1 0-0.2 0-0.2 0c-1-0.1-2.7-1.5-3.3-2.1c-0.2-0.2-0.3-0.5-0.3-0.7 c0-0.3 0.2-0.5 0.4-0.7c0.5-0.3 2.4-1.4 3.5-1.4c0 0 0.1 0 0.2 0c0.6 0.1 1.2 0.4 1.6 0.9c0.4 0.5 0.6 1.1 0.5 1.8 C1036.9 132.2 1035.9 133.2 1034.6 133.2z M1033.2 130.6c0.6 0.5 1.1 0.8 1.4 0.8l0.1 0c0.4 0 0.6-0.3 0.7-0.6 c0-0.2 0-0.4-0.2-0.5c-0.1-0.1-0.3-0.2-0.5-0.2C1034.4 130.1 1033.8 130.3 1033.2 130.6z"/></g><g><path fill="#55B949" d="M1002.9 139.4C1002.8 139.4 1002.8 139.4 1002.9 139.4l-10.5-1c-0.5 0-0.8-0.5-0.8-0.9l0.6-6.6 c0-0.2 0.1-0.4 0.3-0.6c0.2-0.1 0.4-0.2 0.6-0.2l10.4 1c0.2 0 0.4 0.1 0.6 0.3c0.1 0.2 0.2 0.4 0.2 0.6l-0.6 6.6 C1003.7 139.1 1003.3 139.4 1002.9 139.4z M993.4 136.8l8.7 0.9l0.5-4.8l-8.7-0.9L993.4 136.8z"/></g><g><path fill="#55B949" d="M964.4 112.9l4.1-3.2c0 0 0 0 0.1 0l1.8 0.3c0 0 0 0 0.1 0.1c0 0 0 0.1 0 0.1l-4.1 3.2l2.7 4.5 c0 0 0 0 0 0.1c0 0 0 0-0.1 0l-1.8-0.3c0 0 0 0 0 0l-2-3.3c0 0 0 0 0 0L964.4 112.9C964.4 113 964.4 112.9 964.4 112.9"/></g><g><path fill="#55B949" d="M1036 120l-3-4.2c0 0 0 0-0.1 0l-1.8-0.2c0 0-0.1 0-0.1 0c0 0 0 0.1 0 0.1l3.1 4.2l-3.8 3.6 c0 0 0 0 0 0.1c0 0 0 0 0.1 0l1.8 0.2c0 0 0 0 0.1 0l2.8-2.7c0 0 0 0 0 0L1036 120C1036.1 120.1 1036.1 120.1 1036 120"/></g><g><path fill="#55B949" d="M987.3 56.5l-3.6-3.8c0 0 0 0-0.1 0l-1.8 0.1c0 0-0.1 0-0.1 0c0 0 0 0.1 0 0.1l3.6 3.7l-3.3 4.1 c0 0 0 0 0 0.1c0 0 0 0 0.1 0l1.8-0.1c0 0 0 0 0 0l2.4-3c0 0 0 0 0 0L987.3 56.5C987.3 56.5 987.3 56.5 987.3 56.5"/></g></g><g><g><path fill="#55B949" d="M1167.7 158c0 0-0.1 0-0.1 0l-6.4-1.1c-0.5-0.1-0.8-0.5-0.7-1c0.1-0.5 0.5-0.8 1-0.7l6.4 1.1 c0.5 0.1 0.8 0.5 0.7 1C1168.5 157.7 1168.2 158 1167.7 158z"/></g><g><path fill="#55B949" d="M1158.2 171c0 0-0.1 0-0.1 0c-0.5-0.1-0.8-0.5-0.7-1c2.3-17.1-9-33.1-25.2-35.8 c-15.7-2.6-32.7 9.7-36.3 26.4c-0.1 0.5-0.6 0.8-1 0.7c-0.5-0.1-0.8-0.6-0.7-1c3.8-17.5 21.7-30.5 38.3-27.7 c17.1 2.8 29.1 19.8 26.7 37.8C1159 170.7 1158.6 171 1158.2 171z"/></g><g><path fill="#55B949" d="M1152.8 169.4c0 0-0.1 0-0.1 0c-0.5-0.1-0.8-0.5-0.7-1c1.8-13.7-7.5-26.6-20.7-28.8 c-13.2-2.2-25.8 6.3-28.7 19.4l-0.6 2.2c-0.1 0.5-0.6 0.7-1.1 0.6c-0.5-0.1-0.7-0.6-0.6-1.1l0.6-2.2 c3.1-13.9 16.5-23.1 30.7-20.7c14.2 2.3 24.1 16.1 22.2 30.8C1153.6 169 1153.2 169.4 1152.8 169.4z"/></g><g><path fill="#55B949" d="M1175.6 173.5c-0.3 0-0.6-0.2-0.8-0.5l-19.4-38.6c-0.1-0.2-0.1-0.4-0.1-0.5l1.3-8.1l-45.2-7.5l-1.2 7.5 c0 0.2-0.1 0.3-0.3 0.5l-33.2 32.4c-0.3 0.3-0.9 0.3-1.2 0c-0.3-0.3-0.3-0.9 0-1.2l33-32.2l1.3-8c0-0.2 0.2-0.4 0.4-0.6 c0.2-0.1 0.4-0.2 0.6-0.2l47 7.8c0.5 0.1 0.8 0.5 0.7 1l-1.4 8.6l19.3 38.3c0.2 0.4 0 1-0.4 1.2 C1175.9 173.5 1175.7 173.5 1175.6 173.5z"/></g><g><path fill="none" stroke="#55B949" stroke-width="1.7376" stroke-linecap="round" stroke-linejoin="round" stroke-miterlimit="10" d=" M1152.8 168.5"/></g><g><path fill="#55B949" d="M1147.1 137.7c-0.3 0-0.5-0.1-0.7-0.4c-0.3-0.4-0.2-0.9 0.2-1.2l9.4-6.7c0.4-0.3 0.9-0.2 1.2 0.2 c0.3 0.4 0.2 0.9-0.2 1.2l-9.4 6.7C1147.4 137.7 1147.2 137.7 1147.1 137.7z"/></g><g><path fill="#55B949" d="M1156.7 130.5c0 0-0.1 0-0.1 0l-46.5-7.7c-0.5-0.1-0.8-0.5-0.7-1c0.1-0.5 0.5-0.8 1-0.7l46.5 7.7 c0.5 0.1 0.8 0.5 0.7 1C1157.5 130.2 1157.1 130.5 1156.7 130.5z"/></g><g><path fill="#55B949" d="M1160.1 143.9c0 0-0.1 0-0.1 0l-11.3-1.9c-0.3-0.1-0.6-0.3-0.7-0.5l-5.2-13.4c-0.2-0.4 0.1-1 0.5-1.1 c0.4-0.2 1 0.1 1.1 0.5l5 13l10.8 1.8c0.5 0.1 0.8 0.5 0.7 1C1160.9 143.6 1160.5 143.9 1160.1 143.9z"/></g><g><path fill="#55B949" d="M1160.8 171.4c-0.3 0-0.5-0.1-0.7-0.3c-0.3-0.4-0.2-0.9 0.2-1.2l9.6-7.4c0.4-0.3 0.9-0.2 1.2 0.2 c0.3 0.4 0.2 0.9-0.2 1.2l-9.6 7.4C1161.2 171.3 1161 171.4 1160.8 171.4z"/></g><g><path fill="#55B949" d="M1167.5 157.9c0 0-0.1 0-0.1 0l-10-1.7c-0.5-0.1-0.8-0.5-0.7-1c0.1-0.5 0.5-0.8 1-0.7l10 1.7 c0.5 0.1 0.8 0.5 0.7 1C1168.3 157.6 1167.9 157.9 1167.5 157.9z"/></g><g><path fill="#55B949" d="M1117.2 132.8c-0.3 0-0.5-0.1-0.7-0.4l-7.2-10c-0.3-0.4-0.2-0.9 0.2-1.2c0.4-0.3 0.9-0.2 1.2 0.2l7.2 10 c0.3 0.4 0.2 0.9-0.2 1.2C1117.5 132.7 1117.3 132.8 1117.2 132.8z"/></g><g><path fill="#55B949" d="M1115.9 134.2c0 0-0.1 0-0.1 0l-12.2-2.1c-0.5-0.1-0.8-0.5-0.7-1s0.5-0.8 1-0.7l12.2 2.1 c0.5 0.1 0.8 0.5 0.7 1C1116.7 133.9 1116.4 134.2 1115.9 134.2z"/></g><g><path fill="#55B949" d="M1114.2 136.7c-0.2 0-0.4-0.1-0.5-0.2c-0.4-0.3-0.4-0.9-0.1-1.2l9.4-11.5c0.3-0.4 0.8-0.4 1.2-0.1 c0.4 0.3 0.4 0.9 0.1 1.2l-9.4 11.5C1114.7 136.6 1114.4 136.7 1114.2 136.7z"/></g><g><path fill="#55B949" d="M1094.5 161.2c-0.3 0-0.5-0.1-0.7-0.3l-8.5-11.2c-0.3-0.4-0.2-0.9 0.2-1.2c0.4-0.3 0.9-0.2 1.2 0.2 l8.5 11.2c0.3 0.4 0.2 0.9-0.2 1.2C1094.9 161.2 1094.7 161.2 1094.5 161.2z"/></g><g><path fill="#55B949" d="M1103.7 143.9c-0.3 0-0.5-0.1-0.7-0.3l-4.9-6.4c-0.3-0.4-0.2-0.9 0.2-1.2c0.4-0.3 0.9-0.2 1.2 0.2 l4.9 6.4c0.3 0.4 0.2 0.9-0.2 1.2C1104.1 143.8 1103.9 143.9 1103.7 143.9z"/></g><g><path fill="#55B949" d="M1101.3 147c0 0-0.1 0-0.1 0l-10.6-1.8c-0.5-0.1-0.8-0.5-0.7-1c0.1-0.5 0.5-0.8 1-0.7l10.6 1.8 c0.5 0.1 0.8 0.5 0.7 1C1102.1 146.7 1101.7 147 1101.3 147z"/></g><g><path fill="#55B949" d="M1140.5 136.7c-0.3 0-0.5-0.1-0.7-0.4l-6.9-9.4l-8.7 6.8c-0.4 0.3-0.9 0.2-1.2-0.1 c-0.3-0.4-0.2-0.9 0.1-1.2l9.4-7.4c0.2-0.1 0.4-0.2 0.7-0.2c0.2 0 0.4 0.2 0.6 0.3l7.5 10.2c0.3 0.4 0.2 0.9-0.2 1.2 C1140.8 136.7 1140.7 136.7 1140.5 136.7z"/></g><g><path fill="#55B949" d="M1152.9 124.9c-0.4 0-0.8-0.3-0.8-0.7l-4.9-23.7c0-0.1 0-0.2 0-0.3l0.8-5l-18.3-3l-0.8 5 c0 0.1-0.1 0.2-0.1 0.3l-12.4 20.8c-0.2 0.4-0.8 0.5-1.2 0.3c-0.4-0.2-0.5-0.8-0.3-1.2l12.3-20.6l0.9-5.7c0-0.2 0.2-0.4 0.4-0.6 c0.2-0.1 0.4-0.2 0.6-0.2l20 3.3c0.2 0 0.4 0.2 0.6 0.4c0.1 0.2 0.2 0.4 0.2 0.6l-1 5.7l4.9 23.5c0.1 0.5-0.2 0.9-0.7 1 C1153 124.9 1152.9 124.9 1152.9 124.9z"/></g><g><path fill="#55B949" d="M1148.2 98.3c0 0-0.1 0-0.1 0l-19.5-3.2c-0.5-0.1-0.8-0.5-0.7-1c0.1-0.5 0.5-0.8 1-0.7l19.5 3.2 c0.5 0.1 0.8 0.5 0.7 1C1148.9 98 1148.6 98.3 1148.2 98.3z"/></g><g><path fill="#55B949" d="M1142.2 119.8c-0.3 0-0.5-0.1-0.7-0.4c-0.3-0.4-0.2-0.9 0.2-1.2l7.6-5.7L1137.8 97l-15.6 11.7 c-0.4 0.3-0.9 0.2-1.2-0.2c-0.3-0.4-0.2-0.9 0.2-1.2l16.3-12.2c0.2-0.1 0.4-0.2 0.6-0.2c0.2 0 0.4 0.2 0.6 0.3l12.5 17 c0.3 0.4 0.2 0.9-0.2 1.2l-8.3 6.2C1142.6 119.8 1142.4 119.8 1142.2 119.8z"/></g><g><path fill="#55B949" d="M1140.7 104.2c0 0-0.1 0-0.1 0l-7.4-1.2c-0.2 0-0.4-0.2-0.6-0.4l-5.1-7.3c-0.3-0.4-0.2-0.9 0.2-1.2 c0.4-0.3 0.9-0.2 1.2 0.2l4.9 7l6.7 1.1l6.8-5.1c0.4-0.3 0.9-0.2 1.2 0.2c0.3 0.4 0.2 0.9-0.2 1.2l-7.1 5.4 C1141.1 104.2 1140.9 104.2 1140.7 104.2z"/></g><g><path fill="#55B949" d="M1142.4 123.1c-0.4 0-0.8-0.3-0.9-0.8l-1.7-18.6c0-0.5 0.3-0.9 0.8-0.9c0.5 0 0.9 0.3 0.9 0.8l1.7 18.6 C1143.3 122.7 1143 123.1 1142.4 123.1C1142.5 123.1 1142.5 123.1 1142.4 123.1z"/></g><g><path fill="#55B949" d="M1150.2 113.5c0 0-0.1 0-0.1 0l-8.5-1.4c-0.5-0.1-0.8-0.5-0.7-1c0.1-0.5 0.5-0.8 1-0.7l8.5 1.4 c0.5 0.1 0.8 0.5 0.7 1C1151 113.2 1150.7 113.5 1150.2 113.5z"/></g><g><path fill="#55B949" d="M1125.9 120.4c-0.1 0-0.3 0-0.4-0.1c-0.4-0.2-0.6-0.7-0.4-1.2l4.8-10.2c0.2-0.4 0.7-0.6 1.2-0.4 c0.4 0.2 0.6 0.7 0.4 1.2l-4.8 10.2C1126.5 120.2 1126.2 120.4 1125.9 120.4z"/></g><g><path fill="#55B949" d="M1147.6 94.7c-0.5 0-0.9-0.4-0.9-0.9c0-0.3-0.7-34 2.5-53.2c0.1-0.5 0.5-0.8 1-0.7c0.5 0.1 0.8 0.5 0.7 1 c-3.2 19.1-2.5 52.6-2.5 52.9C1148.5 94.3 1148.1 94.7 1147.6 94.7C1147.6 94.7 1147.6 94.7 1147.6 94.7z"/></g><g><path fill="#55B949" d="M1130.4 91.8c-0.1 0-0.2 0-0.3-0.1c-0.4-0.2-0.7-0.7-0.5-1.1c0.1-0.3 11.7-30.9 14.7-50.9 c0.1-0.5 0.5-0.8 1-0.7c0.5 0.1 0.8 0.5 0.7 1c-3.1 20.2-14.7 50.9-14.8 51.2C1131.1 91.6 1130.8 91.8 1130.4 91.8z"/></g><g><path fill="#55B949" d="M1151.1 41.8c0 0-0.1 0-0.1 0l-7-1.2c-0.5-0.1-0.8-0.5-0.7-1l0.5-3c0-0.2 0.2-0.4 0.4-0.6 c0.2-0.1 0.4-0.2 0.6-0.2l7 1.2c0.2 0 0.4 0.2 0.6 0.4c0.1 0.2 0.2 0.4 0.2 0.6l-0.5 3C1151.9 41.5 1151.5 41.8 1151.1 41.8z M1145.1 39l5.3 0.9l0.2-1.3l-5.3-0.9L1145.1 39z"/></g><g><path fill="#55B949" d="M1152.1 35.8c0 0-0.1 0-0.1 0l-7-1.2c-0.2 0-0.4-0.2-0.6-0.4c-0.1-0.2-0.2-0.4-0.2-0.6l0.5-3 c0.1-0.5 0.5-0.8 1-0.7l7 1.2c0.5 0.1 0.8 0.5 0.7 1l-0.5 3c0 0.2-0.2 0.4-0.4 0.6C1152.5 35.7 1152.3 35.8 1152.1 35.8z M1146.1 33l5.3 0.9l0.2-1.3l-5.3-0.9L1146.1 33z"/></g><g><path fill="#55B949" d="M1152.6 39c0 0-0.1 0-0.1 0l-8.5-1.4c-0.5-0.1-0.8-0.5-0.7-1l0.5-3c0-0.2 0.2-0.4 0.4-0.6 c0.2-0.1 0.4-0.2 0.6-0.2l8.5 1.4c0.5 0.1 0.8 0.5 0.7 1l-0.5 3c0 0.2-0.2 0.4-0.4 0.6C1153 38.9 1152.8 39 1152.6 39z M1145.1 36l6.8 1.1l0.2-1.3l-6.8-1.1L1145.1 36z"/></g><g><path fill="#55B949" d="M1151.6 32.6c-0.4 0-0.8-0.3-0.8-0.7l-1-4.5l-2.4 4c-0.3 0.4-0.8 0.5-1.2 0.3c-0.4-0.2-0.5-0.8-0.3-1.2 l3.6-5.8c0.2-0.3 0.5-0.5 0.9-0.4c0.4 0.1 0.6 0.3 0.7 0.7l1.4 6.7c0.1 0.5-0.2 0.9-0.7 1C1151.7 32.6 1151.7 32.6 1151.6 32.6z"/></g><g><path fill="#55B949" d="M1150.1 26.2c0 0-0.1 0-0.1 0c-0.5-0.1-0.8-0.5-0.7-1l1-6.2c0.1-0.5 0.5-0.8 1-0.7c0.5 0.1 0.8 0.5 0.7 1 l-1 6.2C1150.9 25.9 1150.5 26.2 1150.1 26.2z"/></g><g><path fill="#55B949" d="M1141.8 94.2c-0.4 0-0.8-0.3-0.9-0.8c-0.2-2.3 0-9 0.3-14.6c-2.2 7.5-4.4 13.7-4.4 13.8 c-0.2 0.5-0.7 0.7-1.1 0.5c-0.5-0.2-0.7-0.7-0.5-1.1c0-0.1 4-11.3 6.6-21.7c0.1-0.4 0.5-0.7 1-0.6c0.4 0.1 0.8 0.5 0.7 0.9 c0 0.2-1.2 18.6-0.8 22.6C1142.7 93.8 1142.4 94.2 1141.8 94.2C1141.9 94.2 1141.9 94.2 1141.8 94.2z"/></g><g><path fill="#55B949" d="M1141.9 94c-0.3 0-0.5-0.1-0.7-0.3c-0.3-0.4-0.2-0.9 0.2-1.2l4.9-3.7l-5-6.2c-0.3-0.4-0.2-0.9 0.1-1.2 s0.9-0.2 1.2 0.1l5.5 6.9c0.1 0.2 0.2 0.4 0.2 0.7c0 0.2-0.2 0.4-0.3 0.6l-5.7 4.3C1142.2 93.9 1142.1 94 1141.9 94z"/></g><g><path fill="#55B949" d="M1142.1 80.3c-0.3 0-0.5-0.1-0.7-0.4c-0.3-0.4-0.2-0.9 0.2-1.2l4.5-3.1l-7.5-10.1 c-0.3-0.4-0.2-0.9 0.2-1.2l8.2-6.3l-4-8.3c-0.1-0.3-0.1-0.6 0.1-0.9l6.5-8.7c0.3-0.4 0.8-0.5 1.2-0.2c0.4 0.3 0.5 0.8 0.2 1.2 l-6.2 8.2l4.1 8.5c0.2 0.4 0.1 0.8-0.3 1.1l-8.1 6.2l7.5 10.1c0.1 0.2 0.2 0.4 0.2 0.7c0 0.2-0.2 0.4-0.4 0.6l-5.3 3.6 C1142.5 80.3 1142.3 80.3 1142.1 80.3z"/></g><g><path fill="#55B949" d="M1135.9 93c-0.3 0-0.6-0.1-0.7-0.4l-3.6-5.6c-0.3-0.4-0.2-0.9 0.2-1.2l7.4-5.1c0.4-0.3 0.9-0.2 1.2 0.2 c0.3 0.4 0.2 0.9-0.2 1.2l-6.7 4.6l3.2 4.9c0.3 0.4 0.1 0.9-0.3 1.2C1136.2 92.9 1136 93 1135.9 93z"/></g><g><path fill="#55B949" d="M1140.3 80c-0.3 0-0.5-0.1-0.7-0.3l-3.8-5c-0.1-0.2-0.2-0.4-0.2-0.7c0-0.2 0.2-0.4 0.4-0.6l10.5-7.3 l-5.4-8.3c-0.2-0.3-0.2-0.8 0.1-1.1l6.3-6.8l-3.3-9.7c-0.2-0.5 0.1-0.9 0.5-1.1c0.5-0.2 0.9 0.1 1.1 0.5l3.4 10.2 c0.1 0.3 0 0.6-0.2 0.9l-6.2 6.7l5.5 8.5c0.3 0.4 0.2 0.9-0.2 1.2l-10.4 7.3l3.2 4.3c0.3 0.4 0.2 0.9-0.2 1.2 C1140.7 80 1140.5 80 1140.3 80z"/></g><g><path fill="#55B949" d="M1132 95.3c0 0-0.1 0-0.1 0c-0.5-0.1-0.8-0.5-0.7-1l0.4-2.5c0.1-0.5 0.5-0.8 1-0.7c0.5 0.1 0.8 0.5 0.7 1 l-0.4 2.5C1132.7 95 1132.4 95.3 1132 95.3z"/></g><g><path fill="#55B949" d="M1136.5 96.1c0 0-0.1 0-0.1 0c-0.5-0.1-0.8-0.5-0.7-1l0.4-2.5c0.1-0.5 0.5-0.8 1-0.7 c0.5 0.1 0.8 0.5 0.7 1l-0.4 2.5C1137.2 95.8 1136.9 96.1 1136.5 96.1z"/></g><g><path fill="#55B949" d="M1141 96.8c0 0-0.1 0-0.1 0c-0.5-0.1-0.8-0.5-0.7-1l0.4-2.5c0.1-0.5 0.5-0.8 1-0.7c0.5 0.1 0.8 0.5 0.7 1 l-0.4 2.5C1141.7 96.5 1141.4 96.8 1141 96.8z"/></g><g><path fill="#55B949" d="M1145.4 97.6c0 0-0.1 0-0.1 0c-0.5-0.1-0.8-0.5-0.7-1l0.4-2.5c0.1-0.5 0.5-0.8 1-0.7s0.8 0.5 0.7 1 l-0.4 2.5C1146.2 97.3 1145.9 97.6 1145.4 97.6z"/></g><g><path fill="#55B949" d="M1113.5 123.1c0 0-0.1 0-0.1 0c-0.5-0.1-0.8-0.5-0.7-1l0.7-4c0.1-0.5 0.5-0.8 1-0.7 c0.5 0.1 0.8 0.5 0.7 1l-0.7 4C1114.3 122.8 1113.9 123.1 1113.5 123.1z"/></g><g><path fill="#55B949" d="M1118 123.8c0 0-0.1 0-0.1 0c-0.5-0.1-0.8-0.5-0.7-1l0.7-4c0.1-0.5 0.5-0.8 1-0.7c0.5 0.1 0.8 0.5 0.7 1 l-0.7 4C1118.8 123.5 1118.4 123.8 1118 123.8z"/></g><g><path fill="#55B949" d="M1122.5 124.6c0 0-0.1 0-0.1 0c-0.5-0.1-0.8-0.5-0.7-1l0.7-4c0.1-0.5 0.5-0.8 1-0.7 c0.5 0.1 0.8 0.5 0.7 1l-0.7 4C1123.3 124.3 1122.9 124.6 1122.5 124.6z"/></g><g><path fill="#55B949" d="M1127 125.3c0 0-0.1 0-0.1 0c-0.5-0.1-0.8-0.5-0.7-1l0.7-4c0.1-0.5 0.5-0.8 1-0.7c0.5 0.1 0.8 0.5 0.7 1 l-0.7 4C1127.8 125 1127.4 125.3 1127 125.3z"/></g><g><path fill="#55B949" d="M1131.5 126c0 0-0.1 0-0.1 0c-0.5-0.1-0.8-0.5-0.7-1l0.7-4c0.1-0.5 0.5-0.8 1-0.7c0.5 0.1 0.8 0.5 0.7 1 l-0.7 4C1132.3 125.7 1131.9 126 1131.5 126z"/></g><g><path fill="#55B949" d="M1136 126.8c0 0-0.1 0-0.1 0c-0.5-0.1-0.8-0.5-0.7-1l0.7-4c0.1-0.5 0.5-0.8 1-0.7c0.5 0.1 0.8 0.5 0.7 1 l-0.7 4C1136.8 126.5 1136.4 126.8 1136 126.8z"/></g><g><path fill="#55B949" d="M1140.5 127.5c0 0-0.1 0-0.1 0c-0.5-0.1-0.8-0.5-0.7-1l0.7-4c0.1-0.5 0.5-0.8 1-0.7 c0.5 0.1 0.8 0.5 0.7 1l-0.7 4C1141.3 127.2 1140.9 127.5 1140.5 127.5z"/></g><g><path fill="#55B949" d="M1145 128.3c0 0-0.1 0-0.1 0c-0.5-0.1-0.8-0.5-0.7-1l0.7-4c0.1-0.5 0.5-0.8 1-0.7c0.5 0.1 0.8 0.5 0.7 1 l-0.7 4C1145.8 128 1145.4 128.3 1145 128.3z"/></g><g><path fill="#55B949" d="M1149.5 129c0 0-0.1 0-0.1 0c-0.5-0.1-0.8-0.5-0.7-1l0.7-4c0.1-0.5 0.5-0.8 1-0.7c0.5 0.1 0.8 0.5 0.7 1 l-0.7 4C1150.3 128.7 1149.9 129 1149.5 129z"/></g><g><path fill="#55B949" d="M1154 129.8c0 0-0.1 0-0.1 0c-0.5-0.1-0.8-0.5-0.7-1l0.7-4c0.1-0.5 0.5-0.8 1-0.7c0.5 0.1 0.8 0.5 0.7 1 l-0.7 4C1154.7 129.5 1154.4 129.8 1154 129.8z"/></g><g><path fill="#55B949" d="M1151.4 17.3l-4.5 2.6c0 0 0 0 0 0l-0.4 1.8c0 0 0 0.1 0 0.1c0 0 0 0 0.1 0l4.5-2.6l3.2 4.2 c0 0 0 0 0.1 0c0 0 0 0 0.1-0.1l0.4-1.8c0 0 0 0 0-0.1l-2.4-3.1c0 0 0 0 0 0L1151.4 17.3C1151.5 17.3 1151.4 17.3 1151.4 17.3"/></g><g><path fill="#55B949" d="M1131.7 107.4l-5 1.4c0 0 0 0 0 0l-0.8 1.6c0 0 0 0.1 0 0.1c0 0 0 0 0.1 0l5-1.4l2.1 4.9c0 0 0 0 0.1 0 c0 0 0 0 0.1 0l0.8-1.6c0 0 0 0 0-0.1l-1.5-3.6c0 0 0 0 0 0L1131.7 107.4C1131.7 107.4 1131.7 107.4 1131.7 107.4"/></g></g><g><g><g><g><path fill="#55B949" d="M817.8 138.7C817.8 138.7 817.8 138.7 817.8 138.7c-0.5 0-0.9-0.4-0.9-0.9l1.3-60l-33.5-0.8l-1.2 59.9 c0 0.5-0.4 0.9-0.9 0.9c0 0 0 0 0 0c-0.5 0-0.9-0.4-0.9-0.9l1.3-60.7c0-0.2 0.1-0.5 0.3-0.6c0.2-0.2 0.4-0.3 0.6-0.2l35.3 0.8 c0.5 0 0.9 0.4 0.8 0.9l-1.4 60.8C818.7 138.3 818.3 138.7 817.8 138.7z"/></g><g><path fill="#55B949" d="M760.2 137.1C760.1 137.1 760.1 137.1 760.2 137.1c-0.5 0-0.9-0.4-0.9-0.9l0.5-14.7c0-2 1-3.9 2.7-5.1 c1-0.7 3.5-2.2 3.6-2.3c0.3-0.2 0.6-0.2 0.9 0c0.1 0.1 2.5 1.6 3.5 2.4c1.6 1.3 2.5 3.2 2.4 5.3l0.1 14.5 c0 0.5-0.4 0.9-0.9 0.9c0 0 0 0 0 0c-0.5 0-0.9-0.4-0.9-0.9l-0.1-14.5c0-1.5-0.6-2.9-1.8-3.9c-0.7-0.5-2.2-1.5-2.9-2 c-0.8 0.5-2.3 1.4-3 1.9c-1.2 0.9-1.9 2.3-2 3.8l-0.5 14.7C761 136.7 760.6 137.1 760.2 137.1z"/></g><g><path fill="#55B949" d="M772.3 109.8C772.3 109.8 772.3 109.8 772.3 109.8l-11.4-0.3c-0.2 0-0.4-0.1-0.6-0.3 c-0.2-0.2-0.2-0.4-0.2-0.6l0.3-11.6c0-2 1-3.9 2.7-5.1c1-0.7 3.5-2.2 3.6-2.3c0.3-0.2 0.6-0.2 0.9 0c0.1 0.1 2.5 1.6 3.5 2.4 c1.6 1.3 2.5 3.2 2.4 5.3l-0.3 11.6C773.2 109.4 772.8 109.8 772.3 109.8z M761.8 107.8l9.7 0.2l0.2-10.7 c0-1.5-0.6-2.9-1.8-3.9c-0.7-0.5-2.2-1.5-2.9-2c-0.8 0.5-2.3 1.4-3 1.9c-1.2 0.9-1.9 2.3-2 3.8L761.8 107.8z"/></g><g><path fill="#55B949" d="M754.4 109.4C754.4 109.4 754.4 109.4 754.4 109.4l-11.4-0.3c-0.2 0-0.4-0.1-0.6-0.3 c-0.2-0.2-0.2-0.4-0.2-0.6l0.3-11.6c0-2 1-3.9 2.7-5.1c1-0.7 3.5-2.2 3.6-2.3c0.3-0.2 0.6-0.2 0.9 0c0.1 0.1 2.5 1.6 3.5 2.4 c1.6 1.3 2.5 3.2 2.4 5.3l-0.3 11.6c0 0.2-0.1 0.4-0.3 0.6C754.9 109.3 754.7 109.4 754.4 109.4z M743.9 107.4l9.7 0.2 l0.2-10.7c0-1.5-0.6-2.9-1.8-3.9c-0.7-0.5-2.2-1.5-2.9-2c-0.8 0.5-2.3 1.4-3 1.9c-1.2 0.9-1.9 2.3-2 3.8L743.9 107.4z"/></g><g><path fill="#55B949" d="M754.2 137.1c-0.5 0-0.9-0.4-0.9-0.9l0-14.9c0-1.5-0.6-2.9-1.8-3.9c-0.7-0.5-2.2-1.5-2.9-2 c-0.8 0.5-2.3 1.4-3 1.9c-1.2 0.9-1.9 2.3-2 3.8l-0.2 14.8c0 0.5-0.4 0.9-0.9 0.9c-0.5 0-0.9-0.4-0.9-0.9l0.2-14.8 c0-2.1 1-3.9 2.7-5.1c1-0.7 3.5-2.2 3.6-2.3c0.3-0.2 0.6-0.2 0.9 0c0.1 0.1 2.5 1.6 3.5 2.4c1.6 1.3 2.5 3.2 2.4 5.3l0 14.9 C755 136.7 754.7 137.1 754.2 137.1C754.2 137.1 754.2 137.1 754.2 137.1z"/></g><g><path fill="#55B949" d="M858.4 140.7C858.4 140.7 858.4 140.7 858.4 140.7c-0.5 0-0.9-0.4-0.9-0.9l0.4-16.1 c0-1.5-0.6-2.9-1.8-3.9c-0.7-0.5-2.2-1.5-2.9-2c-0.8 0.5-2.3 1.4-3 1.9c-1.2 0.9-1.9 2.3-2 3.8l-0.2 15.4 c0 0.5-0.4 0.9-0.9 0.9c0 0 0 0 0 0c-0.5 0-0.9-0.4-0.9-0.9l0.2-15.4c0-2.1 1-3.9 2.7-5.1c1-0.7 3.5-2.2 3.6-2.3 c0.3-0.2 0.6-0.2 0.9 0c0.1 0.1 2.5 1.6 3.5 2.4c1.6 1.3 2.5 3.2 2.4 5.3l-0.4 16.1C859.3 140.3 858.9 140.7 858.4 140.7z"/></g><g><path fill="#55B949" d="M859 111.7C859 111.7 859 111.7 859 111.7l-11.4-0.3c-0.5 0-0.9-0.4-0.8-0.9L847 99c0-2 1-3.9 2.7-5.1 c1-0.7 3.5-2.2 3.6-2.3c0.3-0.2 0.6-0.2 0.9 0c0.1 0.1 2.5 1.6 3.5 2.4c1.6 1.3 2.5 3.2 2.4 5.3l-0.3 11.6 c0 0.2-0.1 0.4-0.3 0.6C859.5 111.6 859.3 111.7 859 111.7z M848.5 109.7l9.7 0.2l0.2-10.7c0-1.5-0.6-2.9-1.8-3.9 c-0.7-0.5-2.2-1.5-2.9-2c-0.8 0.5-2.3 1.4-3 1.9c-1.2 0.9-1.9 2.3-2 3.8L848.5 109.7z"/></g><g><path fill="#55B949" d="M840.5 139.7C840.5 139.7 840.5 139.7 840.5 139.7c-0.5 0-0.9-0.4-0.9-0.9l0.4-15.6 c0-1.5-0.6-2.9-1.8-3.9c-0.7-0.5-2.2-1.5-2.9-2c-0.8 0.5-2.3 1.4-3 1.9c-1.2 0.9-1.9 2.3-2 3.8l-0.2 15.8 c0 0.5-0.4 0.9-0.9 0.9c0 0 0 0 0 0c-0.5 0-0.9-0.4-0.9-0.9l0.2-15.8c0-2 1-4 2.7-5.1c1-0.7 3.5-2.2 3.6-2.3 c0.3-0.2 0.6-0.2 0.9 0c0.1 0.1 2.5 1.6 3.5 2.4c1.6 1.3 2.5 3.2 2.4 5.3l-0.4 15.6C841.4 139.4 841 139.7 840.5 139.7z"/></g><g><path fill="#55B949" d="M841.2 111.3C841.2 111.3 841.2 111.3 841.2 111.3l-11.4-0.3c-0.5 0-0.9-0.4-0.8-0.9l0.3-11.6 c0-2 1-3.9 2.7-5.1c1-0.7 3.5-2.2 3.6-2.3c0.3-0.2 0.6-0.2 0.9 0c0.1 0.1 2.5 1.6 3.5 2.4c1.6 1.3 2.5 3.2 2.4 5.3l-0.3 11.6 c0 0.2-0.1 0.4-0.3 0.6C841.6 111.2 841.4 111.3 841.2 111.3z M830.7 109.3l9.7 0.2l0.2-10.7c0-1.5-0.6-2.9-1.8-3.9 c-0.7-0.5-2.2-1.5-2.9-2c-0.8 0.5-2.3 1.4-3 1.9c-1.2 0.9-1.9 2.3-2 3.8L830.7 109.3z"/></g><g><path fill="#55B949" d="M825.9 67.8C825.9 67.8 825.8 67.8 825.9 67.8L790.2 67c-0.5 0-0.9-0.4-0.8-0.9c0-0.5 0.4-0.8 0.9-0.8 c0 0 0 0 0 0l35.7 0.8c0.5 0 0.9 0.4 0.8 0.9C826.7 67.4 826.3 67.8 825.9 67.8z"/></g><g><path fill="#55B949" d="M813.9 138.7C813.9 138.7 813.9 138.7 813.9 138.7c-0.5 0-0.9-0.4-0.9-0.9l0.8-32.8 c0.1-4-1-9.2-4.3-11.9c-2-1.6-6.8-4.2-8.2-5c-1.4 0.7-6.4 3.1-8.4 4.6c-3.4 2.5-4.7 7.7-4.8 11.7l-0.6 32.5 c0 0.5-0.4 0.9-0.9 0.9c0 0 0 0 0 0c-0.5 0-0.9-0.4-0.9-0.9l0.6-32.5c0.1-4.4 1.6-10.1 5.5-13c2.5-1.9 8.8-4.9 9.1-5 c0.2-0.1 0.5-0.1 0.8 0c0.3 0.1 6.4 3.4 8.9 5.4c3.8 3.1 5 8.9 4.9 13.2l-0.8 32.8C814.7 138.3 814.3 138.7 813.9 138.7z"/></g><g><path fill="#55B949" d="M739.5 69.8C739.5 69.8 739.4 69.8 739.5 69.8c-2.1 0-3.8-1.7-3.7-3.8c0-0.3 0-1.3 1.8-3.8 c0.7-1 1.3-1.7 1.3-1.7c0.2-0.2 0.4-0.4 0.7-0.3c0.3 0 0.5 0.1 0.7 0.3c0 0 0.6 0.8 1.3 1.8c1.2 1.8 1.7 3 1.7 3.9 C743.1 68.2 741.5 69.8 739.5 69.8z M739.6 62.5c-0.2 0.2-0.4 0.5-0.6 0.7c-1.1 1.5-1.5 2.5-1.5 2.9c0 1.1 0.8 2 1.9 2l0 0.9 v-0.9c1.1 0 2-0.9 2-1.9c0-0.2-0.1-1-1.4-2.9C739.9 62.9 739.7 62.7 739.6 62.5z"/></g><g><path fill="#55B949" d="M864.5 72.6C864.5 72.6 864.4 72.6 864.5 72.6c-1.1 0-2-0.4-2.7-1.2c-0.7-0.7-1-1.7-1-2.7 c0-0.6 0.2-1.6 1.8-3.8c0.7-0.9 1.3-1.7 1.3-1.7c0.2-0.2 0.4-0.3 0.7-0.3c0.3 0 0.5 0.1 0.7 0.3c0 0 0.6 0.8 1.3 1.8 c1.5 2.3 1.7 3.4 1.7 3.9C868.2 71 866.5 72.6 864.5 72.6z M864.6 65.3c-0.2 0.2-0.4 0.5-0.5 0.7c-1.4 1.9-1.5 2.7-1.5 2.8 c0 0.5 0.2 1 0.5 1.4c0.4 0.4 0.9 0.6 1.4 0.6l0 0.9v-0.9c1.1 0 2-0.9 2-1.9c0-0.2-0.1-0.9-1.4-2.9 C864.9 65.7 864.7 65.5 864.6 65.3z"/></g><g><path fill="none" stroke="#55B949" stroke-width="1.7376" stroke-linecap="round" stroke-linejoin="round" stroke-miterlimit="10" d=" M812.3 134.3"/></g><g><path fill="#55B949" d="M862.8 140.9C862.8 140.9 862.8 140.9 862.8 140.9c-0.5 0-0.9-0.4-0.9-0.9l1.3-54.3l-37.6-0.8 c-0.5 0-0.9-0.4-0.8-0.9l0.2-17.2c0-0.2 0.1-0.4 0.2-0.5c3.3-4.6 5.1-10.1 5.3-15.7c0.3-15-11.1-24.7-20.7-30.2 c-3-1.7-5.4-4.7-6.5-6.4c-1.2 1.6-3.7 4.6-6.8 6.1c-13.4 6.5-21.7 13.6-22.1 29.2c-0.1 5.7 1.4 11.2 4.5 16 c0.1 0.1 0.1 0.3 0.1 0.5L778.5 83c0 0.5-0.4 0.8-0.9 0.8c0 0 0 0 0 0L740 83l-1.1 52.7c0 0.5-0.4 0.9-0.9 0.9c0 0 0 0 0 0 c-0.5 0-0.9-0.4-0.9-0.9l1.1-53.5c0-0.2 0.1-0.5 0.3-0.6c0.2-0.2 0.4-0.3 0.6-0.2l37.6 0.8l0.5-16.1c-3.2-5-4.8-10.8-4.7-16.7 c0.4-16.5 9.1-24 23-30.7c3.9-1.9 6.8-6.5 6.9-6.5c0.2-0.3 0.4-0.4 0.7-0.4c0.3 0 0.6 0.2 0.7 0.4c0 0 2.8 4.7 6.6 6.9 c14.4 8.2 21.9 19.2 21.6 31.7c-0.1 5.9-2 11.6-5.4 16.5l-0.2 16.1l37.6 0.8c0.2 0 0.4 0.1 0.6 0.3c0.2 0.2 0.2 0.4 0.2 0.6 l-1.3 55.2C863.7 140.6 863.3 140.9 862.8 140.9z"/></g><g><path fill="#55B949" d="M739.1 83C739.1 83 739.1 83 739.1 83c-0.5 0-0.9-0.4-0.9-0.9l0.3-13.2c0-0.5 0.4-0.8 0.9-0.8 c0 0 0 0 0 0c0.5 0 0.9 0.4 0.8 0.9L740 82.1C740 82.6 739.6 83 739.1 83z"/></g><g><path fill="#55B949" d="M864.1 86.5C864.1 86.5 864.1 86.5 864.1 86.5c-0.5 0-0.9-0.4-0.9-0.9l0.3-13.8c0-0.5 0.4-0.8 0.9-0.8 c0 0 0 0 0 0c0.5 0 0.9 0.4 0.8 0.9L865 85.6C865 86.1 864.6 86.5 864.1 86.5z"/></g><g><path fill="#55B949" d="M803.2 13.3C803.2 13.3 803.2 13.3 803.2 13.3c-0.5 0-0.9-0.4-0.9-0.9l0.2-10.8c0-0.5 0.4-0.8 0.9-0.8 c0 0 0 0 0 0c0.5 0 0.9 0.4 0.8 0.9l-0.2 10.8C804.1 13 803.7 13.3 803.2 13.3z"/></g><g><g><path fill="#55B949" d="M771.3 78.2C771.3 78.2 771.3 78.2 771.3 78.2l-17.9-0.4c-0.3 0-0.6-0.2-0.7-0.4 c-1.3-2-1.9-4.3-1.9-6.7c0.1-6.5 3.7-9.5 8.9-12c1.1-0.5 2.1-1.8 2.3-2.3c0.2-0.3 0.4-0.4 0.7-0.4c0 0 0 0 0 0 c0.3 0 0.6 0.2 0.7 0.4c0 0 1 1.7 2.3 2.4c5.6 3.2 8.5 7.5 8.4 12.4c0 2.4-0.8 4.6-2.2 6.6C771.9 78 771.6 78.2 771.3 78.2z M753.9 76.1l17 0.4c1-1.5 1.6-3.3 1.6-5.2c0.1-5.4-4-8.9-7.5-10.8c-0.9-0.5-1.7-1.3-2.2-2c-0.5 0.6-1.3 1.4-2.3 1.9 c-4.8 2.3-7.8 4.9-8 10.5C752.5 72.6 753 74.4 753.9 76.1z"/></g></g><g><g><path fill="#55B949" d="M850.1 79.9C850 79.9 850 79.9 850.1 79.9l-17.9-0.4c-0.3 0-0.6-0.2-0.7-0.4c-1.3-2-2-4.3-1.9-6.7 c0.1-6.4 3.7-9.5 9-12c1.1-0.5 2.1-1.8 2.3-2.3c0.2-0.3 0.4-0.4 0.7-0.4c0.3 0 0.6 0.2 0.7 0.4c0 0 1 1.7 2.3 2.4 c5.6 3.2 8.5 7.5 8.4 12.4c-0.1 2.4-0.8 4.6-2.2 6.6C850.6 79.8 850.3 79.9 850.1 79.9z M832.6 77.8l17 0.4 c1-1.6 1.6-3.3 1.6-5.2c0.1-5.4-4-8.9-7.5-10.8c-0.9-0.5-1.7-1.3-2.2-2c-0.5 0.6-1.3 1.4-2.3 1.9c-5 2.4-7.8 4.9-8 10.5 C831.2 74.4 831.7 76.2 832.6 77.8z"/></g></g><g><path fill="#55B949" d="M753.3 83.3C753.3 83.3 753.3 83.3 753.3 83.3c-0.5 0-0.9-0.4-0.9-0.9l0.1-5.5c0-0.5 0.4-0.8 0.9-0.8 c0 0 0 0 0 0c0.5 0 0.9 0.4 0.8 0.9l-0.1 5.5C754.2 82.9 753.8 83.3 753.3 83.3z"/></g><g><path fill="#55B949" d="M771.2 83.7C771.2 83.7 771.2 83.7 771.2 83.7c-0.5 0-0.9-0.4-0.9-0.9l0.1-5.5c0-0.5 0.4-0.8 0.9-0.8 c0 0 0 0 0 0c0.5 0 0.9 0.4 0.8 0.9l-0.1 5.5C772.1 83.3 771.7 83.7 771.2 83.7z"/></g><g><path fill="#55B949" d="M759.3 83.4C759.3 83.4 759.3 83.4 759.3 83.4c-0.5 0-0.9-0.4-0.9-0.9l0.1-5.5c0-0.5 0.4-0.8 0.9-0.8 c0 0 0 0 0 0c0.5 0 0.9 0.4 0.8 0.9l-0.1 5.5C760.1 83 759.8 83.4 759.3 83.4z"/></g><g><path fill="#55B949" d="M765.4 83.3C765.4 83.3 765.4 83.3 765.4 83.3c-0.5 0-0.9-0.4-0.9-0.9l0.1-5.2c0-0.5 0.4-0.8 0.9-0.8 c0 0 0 0 0 0c0.5 0 0.9 0.4 0.8 0.9l-0.1 5.2C766.2 82.9 765.9 83.3 765.4 83.3z"/></g><g><g><path fill="#55B949" d="M832 85C832 85 832 85 832 85c-0.5 0-0.9-0.4-0.9-0.9l0.1-5.5c0-0.5 0.4-0.9 0.9-0.9c0 0 0 0 0 0 c0.5 0 0.9 0.4 0.8 0.9l-0.1 5.5C832.9 84.7 832.5 85 832 85z"/></g><g><path fill="#55B949" d="M849.9 85.4C849.9 85.4 849.9 85.4 849.9 85.4c-0.5 0-0.9-0.4-0.9-0.9l0.1-5.5c0-0.5 0.4-0.8 0.9-0.8 c0 0 0 0 0 0c0.5 0 0.9 0.4 0.8 0.9l-0.1 5.5C850.8 85.1 850.4 85.4 849.9 85.4z"/></g><g><path fill="#55B949" d="M838 85.2C838 85.2 838 85.2 838 85.2c-0.5 0-0.9-0.4-0.9-0.9l0.1-5.5c0-0.5 0.4-0.8 0.9-0.8 c0 0 0 0 0 0c0.5 0 0.9 0.4 0.8 0.9l-0.1 5.5C838.9 84.8 838.5 85.2 838 85.2z"/></g><g><path fill="#55B949" d="M844 85.3C843.9 85.3 843.9 85.3 844 85.3c-0.5 0-0.9-0.4-0.9-0.9l0.1-5.5c0-0.5 0.4-0.8 0.9-0.8 c0 0 0 0 0 0c0.5 0 0.9 0.4 0.8 0.9l-0.1 5.5C844.8 84.9 844.4 85.3 844 85.3z"/></g></g><g><path fill="#55B949" d="M776.5 137.8C776.5 137.8 776.5 137.8 776.5 137.8c-0.5 0-0.9-0.4-0.9-0.9l1.1-53.9 c0-0.5 0.4-0.9 0.9-0.9c0 0 0 0 0 0c0.5 0 0.9 0.4 0.9 0.9l-1.1 53.9C777.4 137.4 777 137.8 776.5 137.8z"/></g><g><path fill="#55B949" d="M824.6 138.7C824.5 138.7 824.5 138.7 824.6 138.7c-0.5 0-0.9-0.4-0.9-0.9l1.1-53.8 c0-0.5 0.4-0.9 0.9-0.9c0 0 0 0 0 0c0.5 0 0.9 0.4 0.9 0.9l-1.1 53.8C825.4 138.3 825 138.7 824.6 138.7z"/></g><g><path fill="#55B949" d="M686.2 82.6C686.2 82.6 686.2 82.6 686.2 82.6l-2 0c-0.7 0-1.4-0.3-1.9-0.8c-0.5-0.5-0.8-1.2-0.8-2 c0-0.7 0.3-1.4 0.9-1.9c0.5-0.5 1.2-0.8 2-0.8l1.1 0l0.4-15.8c0-0.5 0.4-0.8 0.9-0.8c0 0 0 0 0 0c0.5 0 0.9 0.4 0.8 0.9 L687.1 78c0 0.5-0.4 0.8-0.9 0.8c0 0 0 0 0 0l-2 0c-0.3 0-0.5 0.1-0.7 0.3c-0.2 0.2-0.3 0.4-0.3 0.7c0 0.3 0.1 0.5 0.3 0.7 c0.2 0.2 0.4 0.3 0.7 0.3l2 0c0.5 0 0.9 0.4 0.8 0.9C687 82.3 686.7 82.6 686.2 82.6z"/></g><g><path fill="none" stroke="#55B949" stroke-width="1.7376" stroke-linecap="round" stroke-linejoin="round" stroke-miterlimit="10" d=" M721.2 132.3"/></g><g><path fill="#55B949" d="M721.2 136.8C721.2 136.8 721.2 136.8 721.2 136.8c-0.5 0-0.9-0.4-0.9-0.9l0.4-18.3 c0-0.2 0.1-0.5 0.3-0.6c0.2-0.2 0.4-0.2 0.6-0.2c0 0 0 0 0 0l1.8 0c0 0 0 0 0 0c0.6 0 1-0.4 1-1c0-0.6-0.4-1-1-1.1l-1.8 0 c-0.2 0-0.5-0.1-0.6-0.3c-0.2-0.2-0.2-0.4-0.2-0.6l0.4-15.8c0-0.2 0.1-0.4 0.3-0.6c0.2-0.2 0.4-0.3 0.6-0.2l1.8 0 c0.3 0 0.5-0.1 0.7-0.3c0.2-0.2 0.3-0.4 0.3-0.7c0-0.3-0.1-0.5-0.3-0.7c-0.2-0.2-0.4-0.3-0.7-0.3l-1.8 0 c-0.5 0-0.9-0.4-0.8-0.9l0.4-19.4l-7.9-0.2l-0.4 19.4c0 0.2-0.1 0.4-0.3 0.6c-0.2 0.2-0.4 0.3-0.6 0.2l-1.9 0 c-0.6 0-1 0.4-1.1 1c0 0.6 0.4 1 1 1.1l1.9 0c0.2 0 0.4 0.1 0.6 0.3s0.2 0.4 0.2 0.6l-0.4 15.8c0 0.5-0.4 0.8-0.9 0.8 c0 0 0 0 0 0l-1.9 0c-0.2 0-0.5 0.1-0.7 0.3c-0.2 0.2-0.3 0.4-0.3 0.7c0 0.3 0.1 0.5 0.3 0.7c0.2 0.2 0.4 0.3 0.7 0.3l1.9 0 c0.2 0 0.5 0.1 0.6 0.3c0.2 0.2 0.2 0.4 0.2 0.6l-0.6 18.2c0 0.5-0.4 0.9-0.9 0.8c-0.5 0-0.9-0.4-0.8-0.9l0.6-17.3l-1 0 c-0.7 0-1.4-0.3-1.9-0.9c-0.5-0.5-0.8-1.2-0.8-2c0-0.7 0.3-1.4 0.8-1.9c0.5-0.5 1.2-0.8 2-0.8l1 0l0.3-14l-1 0 c-1.5 0-2.7-1.3-2.7-2.8c0-1.5 1.3-2.7 2.8-2.7c0 0 0 0 0.1 0l1 0l0.4-19.4c0-0.2 0.1-0.4 0.3-0.6c0.2-0.2 0.4-0.3 0.6-0.2 l9.7 0.2c0.2 0 0.4 0.1 0.6 0.3c0.2 0.2 0.2 0.4 0.2 0.6L723 93.4l1 0c0.7 0 1.4 0.3 1.9 0.8c0.5 0.5 0.8 1.2 0.8 2 c0 0.7-0.3 1.4-0.8 1.9c-0.5 0.5-1.2 0.8-2 0.8l-1 0l-0.3 14.1l1 0c1.5 0 2.7 1.3 2.7 2.8c0 1.5-1.3 2.8-2.8 2.7l-1 0 l-0.3 17.4C722.1 136.4 721.7 136.8 721.2 136.8z"/></g><g><path fill="#55B949" d="M696.3 79.1C696.3 79.1 696.3 79.1 696.3 79.1l-10.1-0.2c-0.5 0-0.9-0.4-0.8-0.9c0-0.5 0.4-0.8 0.9-0.8 c0 0 0 0 0 0l10.1 0.2c0.5 0 0.9 0.4 0.8 0.9C697.2 78.7 696.8 79.1 696.3 79.1z"/></g><g><path fill="#55B949" d="M696.3 82.9C696.2 82.9 696.2 82.9 696.3 82.9l-10.5-0.2c-0.5 0-0.9-0.4-0.8-0.9c0-0.5 0.4-0.9 0.9-0.9 c0 0 0 0 0 0l10.4 0.2c0.5 0 0.9 0.4 0.8 0.9C697.1 82.5 696.7 82.9 696.3 82.9z"/></g><g><path fill="#55B949" d="M695.8 104.8C695.8 104.8 695.7 104.8 695.8 104.8l-10.1-0.2c-0.5 0-0.9-0.4-0.8-0.9 c0-0.5 0.4-0.8 0.9-0.8c0 0 0 0 0 0l10.1 0.2c0.5 0 0.9 0.4 0.8 0.9C696.6 104.4 696.2 104.8 695.8 104.8z"/></g><g><path fill="#55B949" d="M695.7 108.6C695.7 108.6 695.7 108.6 695.7 108.6l-10.1-0.2c-0.5 0-0.9-0.4-0.8-0.9 c0-0.5 0.4-0.8 0.9-0.8c0 0 0 0 0 0l10.1 0.2c0.5 0 0.9 0.4 0.8 0.9C696.5 108.2 696.1 108.6 695.7 108.6z"/></g><g><g><path fill="#55B949" d="M722.9 74.1C722.9 74.1 722.9 74.1 722.9 74.1l-10.4-0.2c-0.3 0-0.6-0.2-0.7-0.4 c-0.8-1.2-1.2-2.6-1.2-4.1c0.1-3.9 2.2-5.7 5.4-7.3c0.6-0.3 1.1-1 1.2-1.2c0.2-0.3 0.4-0.4 0.7-0.4c0.3 0 0.6 0.2 0.7 0.4 c0.1 0.2 0.6 0.9 1.2 1.2c3.4 1.9 5.1 4.5 5 7.5c0 1.5-0.5 2.8-1.3 4C723.4 74 723.2 74.1 722.9 74.1z M713 72.1l9.4 0.2 c0.5-0.8 0.7-1.7 0.8-2.7c0.1-2.9-2.2-4.9-4.2-6c-0.4-0.2-0.8-0.6-1.1-0.9c-0.3 0.3-0.7 0.6-1.2 0.9c-2.8 1.3-4.4 2.7-4.4 5.8 C712.3 70.4 712.6 71.3 713 72.1z"/></g></g><g><g><path fill="#55B949" d="M696.7 53.3C696.7 53.3 696.7 53.3 696.7 53.3l-10.4-0.2c-0.3 0-0.6-0.2-0.7-0.4 c-0.8-1.2-1.2-2.6-1.2-4.1c0.1-3.9 2.2-5.8 5.4-7.3c0.5-0.3 1.1-0.9 1.2-1.2c0.2-0.3 0.4-0.4 0.7-0.4c0 0 0 0 0 0 c0.3 0 0.6 0.2 0.7 0.4c0.1 0.2 0.6 0.9 1.2 1.2c3.4 1.9 5.1 4.5 5 7.5c0 1.4-0.5 2.8-1.3 4C697.3 53.2 697 53.3 696.7 53.3z M686.8 51.4l9.4 0.2c0.5-0.8 0.7-1.7 0.8-2.7c0.1-2.3-1.3-4.4-4.2-6c-0.4-0.2-0.8-0.6-1.1-0.9c-0.3 0.3-0.7 0.6-1.2 0.9 c-2.7 1.3-4.4 2.7-4.4 5.8C686.2 49.6 686.4 50.5 686.8 51.4z"/></g></g><g><path fill="#55B949" d="M905.7 142.9C905.6 142.9 905.6 142.9 905.7 142.9c-0.5 0-0.9-0.4-0.9-0.9l0.7-28.7l-0.9 0 c-1.5 0-2.7-1.3-2.7-2.8c0-1.5 1.3-2.7 2.8-2.7l0.9 0l0.5-20.2l-0.9 0c-1.5 0-2.7-1.3-2.7-2.8c0-0.7 0.3-1.4 0.9-1.9 c0.5-0.5 1.2-0.8 2-0.8l0.9 0l0.6-24.9c0-0.2 0.1-0.4 0.3-0.6c0.2-0.2 0.4-0.3 0.6-0.2l9.7 0.2c0.5 0 0.9 0.4 0.8 0.9 c0 0.5-0.4 0.9-0.9 0.8l-8.8-0.2l-0.6 24.9c0 0.5-0.4 0.8-0.9 0.8c0 0 0 0 0 0l-1.7 0c-0.2 0-0.5 0.1-0.7 0.3 c-0.2 0.2-0.3 0.4-0.3 0.7c0 0.6 0.4 1.1 1 1.1l1.7 0c0.2 0 0.5 0.1 0.6 0.3c0.2 0.2 0.2 0.4 0.2 0.6l-0.5 22 c0 0.2-0.1 0.4-0.3 0.6c-0.2 0.2-0.4 0.3-0.6 0.2l-1.7 0c0 0 0 0 0 0c-0.6 0-1 0.5-1 1c0 0.6 0.4 1 1 1.1l1.7 0 c0.5 0 0.9 0.4 0.8 0.9l-0.7 29.5C906.5 142.5 906.1 142.9 905.7 142.9z"/></g><g><path fill="#55B949" d="M915.6 143.8C915.6 143.8 915.6 143.8 915.6 143.8c-0.5 0-0.9-0.4-0.9-0.9l0.4-30.1 c0-0.2 0.1-0.5 0.3-0.6s0.4-0.3 0.6-0.2l2 0c0.5 0 1-0.5 1.1-1.1c0-0.6-0.5-1.1-1-1.1l-2 0c-0.5 0-0.9-0.4-0.8-0.9 c0-0.5 0.4-0.8 0.9-0.8c0 0 0 0 0 0l2 0c1.5 0 2.7 1.4 2.7 2.9c0 1.6-1.4 2.8-2.8 2.8l-1.1 0l-0.4 29.2 C916.4 143.4 916.1 143.8 915.6 143.8z"/></g><g><path fill="#55B949" d="M916.3 101.6C916.3 101.6 916.3 101.6 916.3 101.6c-0.5 0-0.9-0.4-0.9-0.9l0.3-13.8 c0-0.2 0.1-0.4 0.3-0.6c0.2-0.2 0.4-0.3 0.6-0.2l2 0c0.6 0 1-0.4 1.1-1c0-0.3-0.1-0.5-0.3-0.7c-0.2-0.2-0.4-0.3-0.7-0.3l-2 0 c-0.2 0-0.4-0.1-0.6-0.3c-0.2-0.2-0.2-0.4-0.2-0.6l0.6-25.7c0-0.5 0.4-0.8 0.9-0.8c0 0 0 0 0 0c0.5 0 0.9 0.4 0.8 0.9 l-0.6 24.9l1.1 0c0.7 0 1.4 0.3 1.9 0.9c0.5 0.5 0.8 1.2 0.8 2c0 1.5-1.3 2.7-2.8 2.7c0 0 0 0-0.1 0l-1.1 0l-0.3 12.9 C917.1 101.2 916.7 101.6 916.3 101.6z"/></g><g><path fill="#55B949" d="M889 142.5C889 142.5 889 142.5 889 142.5c-0.5 0-0.9-0.4-0.9-0.9l0.4-21c0-0.2 0.1-0.5 0.3-0.6 c0.2-0.2 0.4-0.3 0.6-0.2l1.9 0c0.3 0 0.5-0.1 0.7-0.3c0.2-0.2 0.3-0.4 0.3-0.7c0-0.3-0.1-0.5-0.3-0.7 c-0.2-0.2-0.4-0.3-0.7-0.3l-1.9 0c-0.5 0-0.9-0.4-0.8-0.9l0.4-15.8c0-0.2 0.1-0.4 0.3-0.6c0.2-0.2 0.4-0.3 0.6-0.2l1.9 0 c0.6 0 1-0.4 1.1-1c0-0.6-0.4-1-1-1l-1.9 0c-0.5 0-0.9-0.4-0.8-0.9l0.4-19.4l-7.9-0.2L881 97c0 0.2-0.1 0.4-0.3 0.6 c-0.2 0.2-0.4 0.3-0.6 0.2l-1.8 0c-0.5 0-1 0.4-1.1 1c0 0.3 0.1 0.5 0.3 0.7c0.2 0.2 0.4 0.3 0.7 0.3l1.8 0 c0.5 0 0.9 0.4 0.8 0.9l-0.4 15.8c0 0.5-0.4 0.8-0.9 0.8c0 0 0 0 0 0l-1.8 0c0 0 0 0 0 0c-0.6 0-1 0.4-1 1c0 0.6 0.4 1 1 1 l1.8 0c0.2 0 0.5 0.1 0.6 0.3c0.2 0.2 0.2 0.4 0.2 0.6l-0.6 20.5c0 0.5-0.4 0.9-0.9 0.8c-0.5 0-0.9-0.4-0.8-0.9l0.6-19.6 l-0.9 0c-1.5 0-2.7-1.3-2.7-2.8c0-1.5 1.3-2.7 2.8-2.7c0 0 0 0 0.1 0l1 0l0.3-14.1l-1 0c-0.7 0-1.4-0.3-1.9-0.9 c-0.5-0.5-0.8-1.2-0.8-2c0-1.5 1.3-2.7 2.8-2.7c0 0 0 0 0.1 0l1 0l0.4-19.4c0-0.2 0.1-0.4 0.3-0.6c0.2-0.2 0.4-0.3 0.6-0.2 l9.7 0.2c0.5 0 0.9 0.4 0.8 0.9l-0.4 19.4l1 0c1.5 0 2.7 1.3 2.7 2.8c0 1.5-1.3 2.7-2.8 2.7c0 0 0 0-0.1 0l-1 0l-0.3 14.1l1 0 c0.7 0 1.4 0.3 1.9 0.9c0.5 0.5 0.8 1.2 0.8 2c0 0.7-0.3 1.4-0.8 1.9c-0.5 0.5-1.2 0.8-2 0.8l-1 0l-0.3 20.1 C889.8 142.1 889.4 142.5 889 142.5z"/></g><g><path fill="#55B949" d="M889.4 117.7C889.4 117.7 889.4 117.7 889.4 117.7l-10.1-0.2c-0.5 0-0.9-0.4-0.8-0.9 c0-0.5 0.4-0.8 0.9-0.8c0 0 0 0 0 0l10.1 0.2c0.5 0 0.9 0.4 0.8 0.9C890.3 117.3 889.9 117.7 889.4 117.7z"/></g><g><path fill="#55B949" d="M889.7 121.5C889.7 121.5 889.7 121.5 889.7 121.5l-10.5-0.2c-0.5 0-0.9-0.4-0.8-0.9 c0-0.5 0.4-0.8 0.9-0.8c0 0 0 0 0 0l10.5 0.2c0.5 0 0.9 0.4 0.8 0.9C890.6 121.1 890.2 121.5 889.7 121.5z"/></g><g><path fill="#55B949" d="M889.8 98.1C889.8 98.1 889.8 98.1 889.8 98.1l-9.7-0.2c-0.5 0-0.9-0.4-0.8-0.9c0-0.5 0.4-0.8 0.9-0.8 c0 0 0 0 0 0l9.7 0.2c0.5 0 0.9 0.4 0.8 0.9C890.7 97.7 890.3 98.1 889.8 98.1z"/></g><g><path fill="#55B949" d="M889.8 101.9C889.8 101.9 889.7 101.9 889.8 101.9l-9.7-0.2c-0.5 0-0.9-0.4-0.8-0.9 c0-0.5 0.4-0.8 0.9-0.8c0 0 0 0 0 0l9.7 0.2c0.5 0 0.9 0.4 0.8 0.9C890.6 101.5 890.2 101.9 889.8 101.9z"/></g><g><path fill="#55B949" d="M916.7 84C916.7 84 916.7 84 916.7 84l-10.1-0.2c-0.5 0-0.9-0.4-0.8-0.9c0-0.5 0.4-0.8 0.9-0.8 c0 0 0 0 0 0l10.1 0.2c0.5 0 0.9 0.4 0.8 0.9C917.5 83.6 917.1 84 916.7 84z"/></g><g><path fill="#55B949" d="M917 87.8C917 87.8 917 87.8 917 87.8l-10.5-0.2c-0.5 0-0.9-0.4-0.8-0.9c0-0.5 0.4-0.8 0.9-0.8 c0 0 0 0 0 0l10.5 0.2c0.5 0 0.9 0.4 0.8 0.9C917.8 87.4 917.4 87.8 917 87.8z"/></g><g><path fill="#55B949" d="M916.5 109.8C916.5 109.8 916.5 109.8 916.5 109.8l-10.5-0.2c-0.5 0-0.9-0.4-0.8-0.9 c0-0.5 0.4-0.8 0.9-0.8c0 0 0 0 0 0l10.5 0.2c0.5 0 0.9 0.4 0.8 0.9C917.3 109.4 916.9 109.8 916.5 109.8z"/></g><g><path fill="#55B949" d="M916.7 113.7C916.7 113.7 916.7 113.7 916.7 113.7l-10.8-0.4c-0.5 0-0.9-0.4-0.8-0.9s0.4-0.8 0.9-0.8 l10.8 0.4c0.5 0 0.9 0.4 0.8 0.9C917.6 113.4 917.2 113.7 916.7 113.7z"/></g><g><g><path fill="#55B949" d="M890.7 77.9C890.7 77.9 890.7 77.9 890.7 77.9l-10.4-0.2c-0.3 0-0.6-0.2-0.7-0.4 c-0.8-1.2-1.2-2.6-1.2-4.1c0.1-3 1.9-5.5 5.4-7.3c0.6-0.3 1.1-1 1.2-1.2c0.2-0.3 0.5-0.4 0.8-0.4c0.3 0 0.6 0.2 0.7 0.4 c0.1 0.2 0.6 0.9 1.2 1.2c3.1 1.7 5.2 3.6 5.1 7.5c0 1.4-0.5 2.8-1.3 4C891.2 77.7 890.9 77.9 890.7 77.9z M880.8 75.9 l9.4 0.2c0.5-0.8 0.7-1.7 0.8-2.7c0.1-3.1-1.5-4.5-4.1-6c-0.4-0.2-0.8-0.6-1.1-0.9c-0.3 0.3-0.7 0.6-1.1 0.9 c-2 1-4.4 2.8-4.4 5.8C880.1 74.2 880.3 75.1 880.8 75.9z"/></g></g><g><g><path fill="#55B949" d="M917.8 58.3C917.8 58.3 917.8 58.3 917.8 58.3L907.4 58c-0.3 0-0.6-0.2-0.7-0.4 c-0.8-1.2-1.2-2.6-1.2-4.1c0.1-3 1.9-5.5 5.4-7.3c0.6-0.3 1.1-1 1.2-1.2c0.2-0.3 0.5-0.4 0.8-0.4c0.3 0 0.6 0.2 0.7 0.4 c0.1 0.2 0.6 0.9 1.1 1.2c3.1 1.7 5.2 3.6 5.1 7.5c0 1.5-0.5 2.8-1.3 4C918.3 58.1 918 58.3 917.8 58.3z M907.9 56.3l9.4 0.2 c0.5-0.8 0.7-1.7 0.8-2.7c0.1-3.1-1.5-4.5-4.2-6c-0.4-0.2-0.8-0.6-1.1-0.9c-0.3 0.3-0.7 0.6-1.1 0.9c-2.9 1.5-4.4 3.4-4.4 5.8 C907.2 54.6 907.4 55.5 907.9 56.3z"/></g></g><g><path fill="none" stroke="#55B949" stroke-width="1.7376" stroke-linecap="round" stroke-linejoin="round" stroke-miterlimit="10" d=" M694.7 131.7"/></g><g><path fill="#55B949" d="M685.1 135.6C685.1 135.6 685.1 135.6 685.1 135.6c-0.5 0-0.9-0.4-0.9-0.9l0.5-27.2 c0-0.5 0.4-0.9 0.9-0.9c0 0 0 0 0 0c0.5 0 0.9 0.4 0.9 0.9l-0.5 27.2C686 135.3 685.6 135.6 685.1 135.6z"/></g><g><path fill="#55B949" d="M685.7 104.6C685.7 104.6 685.7 104.6 685.7 104.6c-0.5 0-0.9-0.4-0.9-0.9l0.5-22 c0-0.5 0.4-0.8 0.9-0.8c0 0 0 0 0 0c0.5 0 0.9 0.4 0.8 0.9l-0.5 22C686.5 104.2 686.2 104.6 685.7 104.6z"/></g><g><path fill="#55B949" d="M685.6 108.4C685.6 108.4 685.6 108.4 685.6 108.4l-2 0c-1.5 0-2.7-1.3-2.7-2.8c0-1.5 1.3-2.7 2.8-2.7 c0 0 0 0 0.1 0l2 0c0.5 0 0.9 0.4 0.8 0.9c0 0.5-0.4 0.9-0.9 0.8l-2 0c-0.6 0-1 0.4-1.1 1c0 0.6 0.4 1 1 1.1l2 0 c0.5 0 0.9 0.4 0.8 0.9C686.5 108 686.1 108.4 685.6 108.4z"/></g><g><path fill="#55B949" d="M722.1 98.9C722.1 98.9 722.1 98.9 722.1 98.9l-9.9-0.2c-0.5 0-0.9-0.4-0.8-0.9c0-0.5 0.4-0.8 0.9-0.8 c0 0 0 0 0 0l9.9 0.2c0.5 0 0.9 0.4 0.8 0.9C723 98.5 722.6 98.9 722.1 98.9z"/></g><g><path fill="#55B949" d="M722.2 95.1C722.2 95.1 722.2 95.1 722.2 95.1l-9.9-0.2c-0.5 0-0.9-0.4-0.8-0.9c0-0.5 0.4-0.8 0.9-0.8 c0 0 0 0 0 0l9.9 0.2c0.5 0 0.9 0.4 0.8 0.9C723 94.8 722.7 95.1 722.2 95.1z"/></g><g><path fill="#55B949" d="M721.5 118.5C721.5 118.5 721.5 118.5 721.5 118.5l-9.6-0.2c-0.5 0-0.9-0.4-0.8-0.9 c0-0.5 0.4-0.8 0.9-0.8c0 0 0 0 0 0l9.6 0.2c0.5 0 0.9 0.4 0.8 0.9C722.4 118.1 722 118.5 721.5 118.5z"/></g><g><path fill="#55B949" d="M721.7 114.7C721.7 114.7 721.7 114.7 721.7 114.7l-9.9-0.2c-0.5 0-0.9-0.4-0.8-0.9 c0-0.5 0.4-0.8 0.9-0.8c0 0 0 0 0 0l9.9 0.2c0.5 0 0.9 0.4 0.8 0.9C722.6 114.3 722.2 114.7 721.7 114.7z"/></g><g><path fill="#55B949" d="M694.7 136.1C694.7 136.1 694.7 136.1 694.7 136.1c-0.5 0-0.9-0.4-0.9-0.9l0.6-27.5 c0-0.2 0.1-0.5 0.3-0.6c0.2-0.2 0.4-0.3 0.6-0.2l1.7 0c0.6 0 1-0.4 1.1-1c0-0.6-0.4-1-1-1.1l-1.7 0c-0.5 0-0.9-0.4-0.8-0.9 l0.5-22c0-0.2 0.1-0.5 0.3-0.6s0.4-0.3 0.6-0.2l1.7 0c0.6 0 1-0.4 1.1-1c0-0.3-0.1-0.5-0.3-0.7c-0.2-0.2-0.4-0.3-0.7-0.3 l-1.7 0c-0.2 0-0.4-0.1-0.6-0.3c-0.2-0.2-0.2-0.4-0.2-0.6l0.6-25.7c0-0.5 0.4-0.8 0.9-0.8c0 0 0 0 0 0c0.5 0 0.9 0.4 0.8 0.9 l-0.6 24.9l0.9 0c0.7 0 1.4 0.3 1.9 0.8s0.8 1.2 0.8 2c0 1.5-1.3 2.7-2.8 2.7c0 0 0 0-0.1 0l-0.9 0l-0.5 20.2l0.9 0 c1.5 0 2.7 1.3 2.7 2.8c0 1.5-1.3 2.8-2.8 2.7l-0.9 0l-0.6 26.6C695.6 135.7 695.2 136.1 694.7 136.1z"/></g></g></g><g><path fill="#55B949" d="M686.8 59.5l3.8 3.5c0 0 0 0 0 0.1l0 1.8c0 0 0 0.1 0 0.1c0 0-0.1 0-0.1 0l-3.8-3.5l-4 3.4c0 0 0 0-0.1 0 c0 0 0 0 0-0.1l0.1-1.8c0 0 0 0 0 0l3-2.5c0 0 0 0 0 0L686.8 59.5C686.7 59.4 686.8 59.4 686.8 59.5"/></g><g><path fill="#55B949" d="M803.7 0l3.8 3.5c0 0 0 0 0 0.1l0 1.8c0 0 0 0.1 0 0.1c0 0-0.1 0-0.1 0l-3.8-3.5l-4 3.4c0 0 0 0-0.1 0 c0 0 0 0 0-0.1l0.1-1.8c0 0 0 0 0 0l3-2.5c0 0 0 0 0 0L803.7 0C803.6 0 803.6 0 803.7 0"/></g><g><path fill="#55B949" d="M788.7 66.2l3.7-3.7c0 0 0 0 0.1 0l1.8 0.1c0 0 0.1 0 0.1 0c0 0 0 0.1 0 0.1l-3.7 3.6l3.2 4.2 c0 0 0 0 0 0.1c0 0 0 0-0.1 0l-1.8-0.1c0 0 0 0 0 0l-2.3-3.1c0 0 0 0 0 0L788.7 66.2C788.7 66.3 788.7 66.2 788.7 66.2"/></g><g><path fill="#55B949" d="M916.1 102.9l-3.7-3.6c0 0 0 0 0-0.1l0.1-1.8c0 0 0-0.1 0-0.1c0 0 0.1 0 0.1 0l3.6 3.7l4.2-3.2 c0 0 0 0 0.1 0c0 0 0 0 0 0.1l-0.1 1.8c0 0 0 0 0 0l-3.1 2.4c0 0 0 0 0 0L916.1 102.9C916.2 102.9 916.1 102.9 916.1 102.9"/></g></g><g><g><path fill="#54B948" d="M174.6 134.3c-0.3 0-0.6-0.3-0.7-0.6c-0.1-0.4 0.2-0.8 0.6-0.8l81.8-11.4c0.4-0.1 0.8 0.2 0.8 0.6 c0.1 0.4-0.2 0.8-0.6 0.8l-81.8 11.4C174.7 134.3 174.6 134.3 174.6 134.3z"/></g><g><path fill="#54B948" d="M176.3 146.7c-0.3 0-0.6-0.3-0.7-0.6c-0.1-0.4 0.2-0.8 0.6-0.8l81.8-11.4c0.4-0.1 0.8 0.2 0.8 0.6 c0.1 0.4-0.2 0.8-0.6 0.8l-81.8 11.4C176.4 146.7 176.4 146.7 176.3 146.7z"/></g><g><path fill="#54B948" d="M178.1 159c-0.3 0-0.6-0.3-0.7-0.6c-0.1-0.4 0.2-0.8 0.6-0.8l32.6-4.6c0.4-0.1 0.8 0.2 0.8 0.6 s-0.2 0.8-0.6 0.8l-32.6 4.6C178.2 159 178.1 159.1 178.1 159z"/></g><g><path fill="none" stroke="#54B948" stroke-width="1.5059" stroke-linecap="round" stroke-linejoin="round" stroke-miterlimit="10" d=" M173.6 126.4"/></g><g><path fill="#54B948" d="M196.1 124c-0.3 0-0.6-0.3-0.7-0.6c-0.1-0.4 0.2-0.8 0.6-0.8l18.2-2.5c0.4-0.1 0.8 0.2 0.8 0.6 c0.1 0.4-0.2 0.8-0.6 0.8l-18.2 2.5C196.3 124 196.2 124 196.1 124z"/></g><g><path fill="#54B948" d="M237 118.2c-0.3 0-0.6-0.3-0.7-0.6c-0.1-0.4 0.2-0.8 0.6-0.8l18.3-2.6c0.4-0.1 0.8 0.2 0.8 0.6 s-0.2 0.8-0.6 0.8l-18.3 2.6C237.2 118.2 237.1 118.2 237 118.2z"/></g><g><path fill="#54B948" d="M272.7 82.2c0 0 0.9-1 0.9-1c0 0 0.1 0 0.1 0l4.3 2.8c0 0 0 0 0 0.1l0.2 1.8l0 0c0 0 0 0.1 0 0.1 c0 0 0 0-0.1 0l-4.2-2.9l-3.4 3.9c0 0 0 0-0.1 0c0 0 0 0 0-0.1l0 0l-0.2-1.8c0 0 0 0 0-0.1L272.7 82.2z"/></g><g><path fill="#54B948" d="M211.5 152.6c0 0 1 0.9 1 0.9c0 0 0 0.1 0 0.1l-2.8 4.3c0 0 0 0-0.1 0l-1.8 0.2l0 0c0 0-0.1 0-0.1 0 c0 0 0 0 0-0.1l2.9-4.2l-3.9-3.4c0 0 0 0 0-0.1c0 0 0 0 0.1 0l0 0l1.8-0.2c0 0 0 0 0.1 0L211.5 152.6z"/></g><g><path fill="#54B948" d="M170.4 104.6c-0.3 0-0.6-0.3-0.7-0.6c-0.1-0.4 0.2-0.8 0.6-0.8l3-0.4c0.4-0.1 0.8 0.2 0.8 0.6 c0.1 0.4-0.2 0.8-0.6 0.8l-3 0.4C170.5 104.6 170.5 104.6 170.4 104.6z"/></g><g><path fill="#54B948" d="M189.6 101.9c-0.3 0-0.6-0.3-0.7-0.6c-0.1-0.4 0.2-0.8 0.6-0.8l3-0.4c0.4-0.1 0.8 0.2 0.8 0.6 c0.1 0.4-0.2 0.8-0.6 0.8l-3 0.4C189.8 101.9 189.7 101.9 189.6 101.9z"/></g><g><path fill="#54B948" d="M172 116.2c-0.3 0-0.6-0.3-0.7-0.6c-0.1-0.4 0.2-0.8 0.6-0.8l21.3-3c0.4-0.1 0.8 0.2 0.8 0.6 c0.1 0.4-0.2 0.8-0.6 0.8l-21.3 3C172.2 116.2 172.1 116.2 172 116.2z"/></g><g><path fill="#54B948" d="M172.6 120.1c-0.3 0-0.6-0.3-0.7-0.6c-0.1-0.4 0.2-0.8 0.6-0.8l21.3-3c0.4-0.1 0.8 0.2 0.8 0.6 c0.1 0.4-0.2 0.8-0.6 0.8l-21.3 3C172.7 120.1 172.7 120.1 172.6 120.1z"/></g><g><path fill="#54B948" d="M179.8 172.6c-0.3 0-0.6-0.3-0.7-0.6l-9.3-68c0-0.1 0-0.1 0-0.2l0.6-7.1c0-0.3 0.3-0.6 0.6-0.7 c0.3-0.1 0.7 0.1 0.8 0.4l2.9 6.6c0 0.1 0 0.1 0.1 0.2l1.5 11c0.1 0.4-0.2 0.8-0.6 0.8c-0.4 0.1-0.8-0.2-0.8-0.6l-1.5-10.9 l-1.7-3.8l-0.3 4l9.3 67.9c0.1 0.4-0.2 0.8-0.6 0.8C179.9 172.6 179.8 172.6 179.8 172.6z"/></g><g><path fill="#54B948" d="M202 168.3c-0.3 0-0.6-0.3-0.7-0.6l-9.3-66.7l-1.4-3.8l-0.6 4.1l1.6 11.5c0.1 0.4-0.2 0.8-0.6 0.8 c-0.4 0.1-0.8-0.2-0.8-0.6l-1.6-11.6c0-0.1 0-0.1 0-0.2l1-7.1c0-0.3 0.3-0.6 0.7-0.6c0.3 0 0.7 0.2 0.8 0.5l2.5 6.7 c0 0.1 0 0.1 0 0.2l9.4 66.8c0.1 0.4-0.2 0.8-0.6 0.8C202.2 168.3 202.1 168.3 202 168.3z"/></g><g><path fill="#54B948" d="M175 111.8c-0.1 0-0.3-0.1-0.4-0.2c-0.3-0.3-0.4-0.7-0.1-1.1l3.6-4.4c0.1-0.1 0.3-0.2 0.5-0.3l6.5-0.9 c0.2 0 0.4 0 0.5 0.1l5.2 3.2c0.4 0.2 0.5 0.7 0.2 1c-0.2 0.4-0.7 0.5-1 0.2l-5-3.1l-5.9 0.8l-3.4 4.2 C175.5 111.7 175.2 111.8 175 111.8z"/></g><g><path fill="#54B948" d="M178.6 107.3c-0.3 0-0.6-0.3-0.7-0.6l-0.5-3.8c-0.1-0.4 0.2-0.8 0.6-0.8c0.4-0.1 0.8 0.2 0.8 0.6l0.5 3.8 c0.1 0.4-0.2 0.8-0.6 0.8C178.7 107.3 178.7 107.3 178.6 107.3z"/></g><g><path fill="#54B948" d="M184.8 106.5c-0.3 0-0.6-0.3-0.7-0.6l-0.5-3.8c-0.1-0.4 0.2-0.8 0.6-0.8c0.4-0.1 0.8 0.2 0.8 0.6l0.5 3.8 c0.1 0.4-0.2 0.8-0.6 0.8C184.9 106.5 184.9 106.5 184.8 106.5z"/></g><g><path fill="#54B948" d="M178.5 129.5c-0.1 0-0.3-0.1-0.4-0.1c-0.2-0.1-0.3-0.3-0.3-0.5l-0.8-6c-0.1-0.4 0.2-0.8 0.6-0.8l4.2-0.6 c0.2 0 0.4 0 0.6 0.1c0.2 0.1 0.3 0.3 0.3 0.5l0.8 6c0.1 0.4-0.2 0.8-0.6 0.8l-4.2 0.6C178.6 129.5 178.6 129.5 178.5 129.5z M178.6 123.4l0.6 4.5l2.7-0.4l-0.6-4.5L178.6 123.4z"/></g><g><path fill="#54B948" d="M187.3 128.2c-0.1 0-0.3-0.1-0.4-0.1c-0.2-0.1-0.3-0.3-0.3-0.5l-0.8-6c-0.1-0.4 0.2-0.8 0.6-0.8l4.2-0.6 c0.2 0 0.4 0 0.6 0.1c0.2 0.1 0.3 0.3 0.3 0.5l0.8 6c0.1 0.4-0.2 0.8-0.6 0.8l-4.2 0.6C187.4 128.2 187.4 128.2 187.3 128.2z M187.4 122.1l0.6 4.5l2.7-0.4l-0.6-4.5L187.4 122.1z"/></g><g><path fill="#54B948" d="M180.4 143c-0.1 0-0.3-0.1-0.4-0.1c-0.2-0.1-0.3-0.3-0.3-0.5l-0.8-6c-0.1-0.4 0.2-0.8 0.6-0.8l4.2-0.6 c0.2 0 0.4 0 0.6 0.1c0.2 0.1 0.3 0.3 0.3 0.5l0.8 6c0.1 0.4-0.2 0.8-0.6 0.8l-4.2 0.6C180.5 143 180.5 143 180.4 143z M180.5 136.9l0.6 4.5l2.7-0.4l-0.6-4.5L180.5 136.9z"/></g><g><path fill="#54B948" d="M189.2 141.7c-0.1 0-0.3-0.1-0.4-0.1c-0.2-0.1-0.3-0.3-0.3-0.5l-0.8-6c-0.1-0.4 0.2-0.8 0.6-0.8l4.2-0.6 c0.2 0 0.4 0 0.6 0.1c0.2 0.1 0.3 0.3 0.3 0.5l0.8 6c0.1 0.4-0.2 0.8-0.6 0.8l-4.2 0.6C189.3 141.7 189.3 141.7 189.2 141.7z M189.3 135.6l0.6 4.5l2.7-0.4l-0.6-4.5L189.3 135.6z"/></g><g><path fill="#54B948" d="M205.4 139.5c-0.1 0-0.3-0.1-0.4-0.1c-0.2-0.1-0.3-0.3-0.3-0.5l-0.8-6c-0.1-0.4 0.2-0.8 0.6-0.8l4.2-0.6 c0.2 0 0.4 0 0.6 0.1c0.2 0.1 0.3 0.3 0.3 0.5l0.8 6c0.1 0.4-0.2 0.8-0.6 0.8l-4.2 0.6C205.5 139.5 205.5 139.5 205.4 139.5z M205.5 133.4l0.6 4.5l2.7-0.4l-0.6-4.5L205.5 133.4z"/></g><g><path fill="#54B948" d="M182.1 155.4c-0.1 0-0.3-0.1-0.4-0.1c-0.2-0.1-0.3-0.3-0.3-0.5l-0.8-6c-0.1-0.4 0.2-0.8 0.6-0.8l4.2-0.6 c0.2 0 0.4 0 0.6 0.1c0.2 0.1 0.3 0.3 0.3 0.5l0.8 6c0.1 0.4-0.2 0.8-0.6 0.8l-4.2 0.6C182.3 155.4 182.2 155.4 182.1 155.4z M182.2 149.3l0.6 4.5l2.7-0.4L185 149L182.2 149.3z"/></g><g><path fill="#54B948" d="M191 154.2c-0.1 0-0.3-0.1-0.4-0.1c-0.2-0.1-0.3-0.3-0.3-0.5l-0.8-6c-0.1-0.4 0.2-0.8 0.6-0.8l4.2-0.6 c0.2 0 0.4 0 0.6 0.1c0.2 0.1 0.3 0.3 0.3 0.5l0.8 6c0.1 0.4-0.2 0.8-0.6 0.8l-4.2 0.6C191.1 154.2 191 154.2 191 154.2z M191 148.1l0.6 4.5l2.7-0.4l-0.6-4.5L191 148.1z"/></g><g><path fill="#54B948" d="M183.9 167.9c-0.1 0-0.3-0.1-0.4-0.1c-0.2-0.1-0.3-0.3-0.3-0.5l-0.8-6c-0.1-0.4 0.2-0.8 0.6-0.8l4.2-0.6 c0.2 0 0.4 0 0.6 0.1c0.2 0.1 0.3 0.3 0.3 0.5l0.8 6c0.1 0.4-0.2 0.8-0.6 0.8l-4.2 0.6C184 167.9 183.9 167.9 183.9 167.9z M184 161.8l0.6 4.5l2.7-0.4l-0.6-4.5L184 161.8z"/></g><g><path fill="#54B948" d="M192.7 166.7c-0.1 0-0.3-0.1-0.4-0.1c-0.2-0.1-0.3-0.3-0.3-0.5l-0.8-6c-0.1-0.4 0.2-0.8 0.6-0.8l4.2-0.6 c0.2 0 0.4 0 0.6 0.1c0.2 0.1 0.3 0.3 0.3 0.5l0.8 6c0.1 0.4-0.2 0.8-0.6 0.8l-4.2 0.6C192.8 166.7 192.8 166.7 192.7 166.7z M192.8 160.6l0.6 4.5l2.7-0.4l-0.6-4.5L192.8 160.6z"/></g><g><path fill="#54B948" d="M211.6 98.8c-0.3 0-0.6-0.3-0.7-0.6c-0.1-0.4 0.2-0.8 0.6-0.8l3-0.4c0.4-0.1 0.8 0.2 0.8 0.6 c0.1 0.4-0.2 0.8-0.6 0.8l-3 0.4C211.8 98.8 211.7 98.8 211.6 98.8z"/></g><g><path fill="#54B948" d="M230.8 96.1c-0.3 0-0.6-0.3-0.7-0.6c-0.1-0.4 0.2-0.8 0.6-0.8l3-0.4c0.4-0.1 0.8 0.2 0.8 0.6 c0.1 0.4-0.2 0.8-0.6 0.8l-3 0.4C231 96.1 230.9 96.1 230.8 96.1z"/></g><g><path fill="#54B948" d="M213.3 110.4c-0.3 0-0.6-0.3-0.7-0.6c-0.1-0.4 0.2-0.8 0.6-0.8l21.3-3c0.4-0.1 0.8 0.2 0.8 0.6 c0.1 0.4-0.2 0.8-0.6 0.8l-21.3 3C213.4 110.4 213.3 110.4 213.3 110.4z"/></g><g><path fill="#54B948" d="M213.8 114.3c-0.3 0-0.6-0.3-0.7-0.6c-0.1-0.4 0.2-0.8 0.6-0.8l21.3-3c0.4-0.1 0.8 0.2 0.8 0.6 c0.1 0.4-0.2 0.8-0.6 0.8l-21.3 3C213.9 114.3 213.9 114.3 213.8 114.3z"/></g><g><path fill="#54B948" d="M253.1 94.3c-0.3 0-0.6-0.3-0.7-0.6c-0.1-0.4 0.2-0.8 0.6-0.8l21.3-3c0.4-0.1 0.8 0.2 0.9 0.6 c0.1 0.4-0.2 0.8-0.6 0.8l-21.3 3C253.2 94.3 253.1 94.3 253.1 94.3z"/></g><g><path fill="#54B948" d="M246.8 54.3c-0.3 0-0.6-0.3-0.7-0.6c-0.1-0.4 0.2-0.8 0.6-0.8l22.4-3.1c0.4-0.1 0.8 0.2 0.8 0.6 c0.1 0.4-0.2 0.8-0.6 0.8L247 54.3C246.9 54.3 246.8 54.3 246.8 54.3z"/></g><g><path fill="#54B948" d="M251.8 30.2c-0.3 0-0.6-0.3-0.7-0.6c-0.1-0.4 0.2-0.8 0.6-0.8l6.2-0.9c0.4-0.1 0.8 0.2 0.8 0.6 c0.1 0.4-0.2 0.8-0.6 0.8l-6.2 0.9C252 30.2 251.9 30.2 251.8 30.2z"/></g><g><path fill="#54B948" d="M253.6 98.2c-0.3 0-0.6-0.3-0.7-0.6c-0.1-0.4 0.2-0.8 0.6-0.8l21.3-3c0.4-0.1 0.8 0.2 0.8 0.6 c0.1 0.4-0.2 0.8-0.6 0.8l-21.3 3C253.7 98.2 253.7 98.2 253.6 98.2z"/></g><g><path fill="#54B948" d="M255.3 110.6c-0.3 0-0.6-0.3-0.7-0.6c-0.1-0.4 0.2-0.8 0.6-0.8l21.3-3c0.4-0.1 0.8 0.2 0.8 0.6 c0.1 0.4-0.2 0.8-0.6 0.8l-21.3 3C255.5 110.6 255.4 110.6 255.3 110.6z"/></g><g><path fill="#54B948" d="M255.9 114.5c-0.3 0-0.6-0.3-0.7-0.6c-0.1-0.4 0.2-0.8 0.6-0.8l21.3-3c0.4-0.1 0.8 0.2 0.8 0.6 c0.1 0.4-0.2 0.8-0.6 0.8l-21.3 3C256 114.5 256 114.5 255.9 114.5z"/></g><g><path fill="#54B948" d="M257.7 127.1c-0.3 0-0.6-0.3-0.7-0.6c-0.1-0.4 0.2-0.8 0.6-0.8l21.3-3c0.4-0.1 0.8 0.2 0.8 0.6 c0.1 0.4-0.2 0.8-0.6 0.8l-21.3 3C257.8 127.1 257.7 127.1 257.7 127.1z"/></g><g><path fill="#54B948" d="M258.2 131c-0.3 0-0.6-0.3-0.7-0.6c-0.1-0.4 0.2-0.8 0.6-0.8l21.3-3c0.4-0.1 0.8 0.2 0.8 0.6 c0.1 0.4-0.2 0.8-0.6 0.8l-21.3 3C258.3 131 258.3 131 258.2 131z"/></g><g><path fill="#54B948" d="M260 143.6c-0.3 0-0.6-0.3-0.7-0.6c-0.1-0.4 0.2-0.8 0.6-0.8l21.3-3c0.4-0.1 0.8 0.2 0.8 0.6 c0.1 0.4-0.2 0.8-0.6 0.8l-21.3 3C260.1 143.6 260 143.6 260 143.6z"/></g><g><path fill="#54B948" d="M260.5 147.5c-0.3 0-0.6-0.3-0.7-0.6c-0.1-0.4 0.2-0.8 0.6-0.8l21.3-3c0.4-0.1 0.8 0.2 0.8 0.6 c0.1 0.4-0.2 0.8-0.6 0.8l-21.3 3C260.6 147.5 260.6 147.5 260.5 147.5z"/></g><g><path fill="#54B948" d="M221 165.6c-0.3 0-0.6-0.3-0.7-0.6L211 98.2c0-0.1 0-0.1 0-0.2l0.6-7.1c0-0.3 0.3-0.6 0.6-0.7 c0.3-0.1 0.7 0.1 0.8 0.4l2.9 6.6c0 0.1 0 0.1 0.1 0.2l1.5 11c0.1 0.4-0.2 0.8-0.6 0.8c-0.4 0.1-0.8-0.2-0.8-0.6l-1.5-10.9 l-1.7-3.8l-0.3 4l9.3 66.7c0.1 0.4-0.2 0.8-0.6 0.8C221.1 165.6 221 165.6 221 165.6z"/></g><g><path fill="#54B948" d="M243.2 162.5c-0.3 0-0.6-0.3-0.7-0.6l-9.3-66.7l-1.4-3.8l-0.6 4.1l1.6 11.5c0.1 0.4-0.2 0.8-0.6 0.8 c-0.4 0.1-0.8-0.2-0.8-0.6l-1.6-11.6c0-0.1 0-0.1 0-0.2l1-7.1c0-0.3 0.3-0.6 0.7-0.6c0.3 0 0.7 0.2 0.8 0.5l2.5 6.7 c0 0.1 0 0.1 0 0.2l9.4 66.8c0.1 0.4-0.2 0.8-0.6 0.8C243.4 162.5 243.3 162.5 243.2 162.5z"/></g><g><path fill="#54B948" d="M261.6 160c-0.3 0-0.6-0.3-0.7-0.6L250 81.8c-0.1-0.4 0.2-0.8 0.6-0.8c0.4-0.1 0.8 0.2 0.8 0.6l10.9 77.6 c0.1 0.4-0.2 0.8-0.6 0.8C261.7 160 261.6 160 261.6 160z"/></g><g><path fill="#54B948" d="M266.4 159.2c-0.3 0-0.6-0.3-0.7-0.6l-1.7-12c-0.1-0.4 0.2-0.8 0.6-0.8c0.4-0.1 0.8 0.2 0.8 0.6l1.7 12 c0.1 0.4-0.2 0.8-0.6 0.8C266.5 159.2 266.5 159.2 266.4 159.2z"/></g><g><path fill="#54B948" d="M270.7 158.6c-0.3 0-0.6-0.3-0.7-0.6l-1.7-12c-0.1-0.4 0.2-0.8 0.6-0.8c0.4-0.1 0.8 0.2 0.8 0.6l1.7 12 c0.1 0.4-0.2 0.8-0.6 0.8C270.9 158.6 270.8 158.6 270.7 158.6z"/></g><g><path fill="#54B948" d="M275.1 158c-0.3 0-0.6-0.3-0.7-0.6l-1.7-12c-0.1-0.4 0.2-0.8 0.6-0.8c0.4-0.1 0.8 0.2 0.8 0.6l1.7 12 c0.1 0.4-0.2 0.8-0.6 0.8C275.2 158 275.1 158 275.1 158z"/></g><g><path fill="#54B948" d="M279.4 157.4c-0.3 0-0.6-0.3-0.7-0.6l-1.7-12c-0.1-0.4 0.2-0.8 0.6-0.8c0.4-0.1 0.8 0.2 0.8 0.6l1.7 12 c0.1 0.4-0.2 0.8-0.6 0.8C279.5 157.4 279.4 157.4 279.4 157.4z"/></g><g><path fill="#54B948" d="M264.1 142.7c-0.3 0-0.6-0.3-0.7-0.6l-1.7-12c-0.1-0.4 0.2-0.8 0.6-0.8c0.4-0.1 0.8 0.2 0.8 0.6l1.7 12 c0.1 0.4-0.2 0.8-0.6 0.8C264.2 142.7 264.2 142.7 264.1 142.7z"/></g><g><path fill="#54B948" d="M268.4 142.1c-0.3 0-0.6-0.3-0.7-0.6l-1.7-12c-0.1-0.4 0.2-0.8 0.6-0.8c0.4-0.1 0.8 0.2 0.8 0.6l1.7 12 c0.1 0.4-0.2 0.8-0.6 0.8C268.5 142.1 268.5 142.1 268.4 142.1z"/></g><g><path fill="#54B948" d="M272.8 141.5c-0.3 0-0.6-0.3-0.7-0.6l-1.7-12c-0.1-0.4 0.2-0.8 0.6-0.8c0.4-0.1 0.8 0.2 0.8 0.6l1.7 12 c0.1 0.4-0.2 0.8-0.6 0.8C272.9 141.5 272.8 141.5 272.8 141.5z"/></g><g><path fill="#54B948" d="M277.1 140.9c-0.3 0-0.6-0.3-0.7-0.6l-1.7-12c-0.1-0.4 0.2-0.8 0.6-0.8c0.4-0.1 0.8 0.2 0.8 0.6l1.7 12 c0.1 0.4-0.2 0.8-0.6 0.8C277.2 140.9 277.1 140.9 277.1 140.9z"/></g><g><path fill="#54B948" d="M261.8 126.2c-0.3 0-0.6-0.3-0.7-0.6l-1.7-12c-0.1-0.4 0.2-0.8 0.6-0.8c0.4-0.1 0.8 0.2 0.8 0.6l1.7 12 c0.1 0.4-0.2 0.8-0.6 0.8C261.9 126.2 261.9 126.2 261.8 126.2z"/></g><g><path fill="#54B948" d="M266.1 125.6c-0.3 0-0.6-0.3-0.7-0.6l-1.7-12c-0.1-0.4 0.2-0.8 0.6-0.8c0.4-0.1 0.8 0.2 0.8 0.6l1.7 12 c0.1 0.4-0.2 0.8-0.6 0.8C266.2 125.6 266.2 125.6 266.1 125.6z"/></g><g><path fill="#54B948" d="M270.4 125c-0.3 0-0.6-0.3-0.7-0.6l-1.7-12c-0.1-0.4 0.2-0.8 0.6-0.8c0.4-0.1 0.8 0.2 0.8 0.6l1.7 12 c0.1 0.4-0.2 0.8-0.6 0.8C270.6 125 270.5 125 270.4 125z"/></g><g><path fill="#54B948" d="M274.8 124.4c-0.3 0-0.6-0.3-0.7-0.6l-1.7-12c-0.1-0.4 0.2-0.8 0.6-0.8c0.4-0.1 0.8 0.2 0.8 0.6l1.7 12 c0.1 0.4-0.2 0.8-0.6 0.8C274.9 124.4 274.8 124.4 274.8 124.4z"/></g><g><path fill="#54B948" d="M259.5 109.7c-0.3 0-0.6-0.3-0.7-0.6l-1.7-12c-0.1-0.4 0.2-0.8 0.6-0.8c0.4-0.1 0.8 0.2 0.8 0.6l1.7 12 c0.1 0.4-0.2 0.8-0.6 0.8C259.6 109.7 259.5 109.7 259.5 109.7z"/></g><g><path fill="#54B948" d="M263.8 109.1c-0.3 0-0.6-0.3-0.7-0.6l-1.7-12c-0.1-0.4 0.2-0.8 0.6-0.8c0.4-0.1 0.8 0.2 0.8 0.6l1.7 12 c0.1 0.4-0.2 0.8-0.6 0.8C263.9 109.1 263.9 109.1 263.8 109.1z"/></g><g><path fill="#54B948" d="M268.1 108.5c-0.3 0-0.6-0.3-0.7-0.6l-1.7-12c-0.1-0.4 0.2-0.8 0.6-0.8c0.4-0.1 0.8 0.2 0.8 0.6l1.7 12 c0.1 0.4-0.2 0.8-0.6 0.8C268.2 108.5 268.2 108.5 268.1 108.5z"/></g><g><path fill="#54B948" d="M272.5 107.9c-0.3 0-0.6-0.3-0.7-0.6l-1.7-12c-0.1-0.4 0.2-0.8 0.6-0.8c0.4-0.1 0.8 0.2 0.8 0.6l1.7 12 c0.1 0.4-0.2 0.8-0.6 0.8C272.6 107.9 272.5 107.9 272.5 107.9z"/></g><g><path fill="#54B948" d="M257.2 93.2c-0.3 0-0.6-0.3-0.7-0.6l-1.6-11.5c-0.1-0.4 0.2-0.8 0.6-0.8c0.4-0.1 0.8 0.2 0.8 0.6 l1.6 11.5c0.1 0.4-0.2 0.8-0.6 0.8C257.3 93.2 257.2 93.2 257.2 93.2z"/></g><g><path fill="#54B948" d="M247.5 59.4c-0.3 0-0.6-0.3-0.7-0.6l-0.7-5.1c0-0.2 0-0.3 0.1-0.4l4.1-7.9l-0.5-3.4 c-0.1-0.4 0.2-0.8 0.6-0.8l12.1-1.7c0.4-0.1 0.8 0.2 0.8 0.6l0.5 3.3l5.9 6.7c0.1 0.1 0.2 0.2 0.2 0.4l0.7 5.1 c0.1 0.4-0.2 0.8-0.6 0.8c-0.4 0.1-0.8-0.2-0.8-0.6l-0.7-4.9l-5.9-6.7c-0.1-0.1-0.2-0.2-0.2-0.4l-0.4-2.8l-10.6 1.5l0.4 2.9 c0 0.2 0 0.3-0.1 0.4l-4.1 7.9l0.7 4.9c0.1 0.4-0.2 0.8-0.6 0.8C247.6 59.4 247.5 59.4 247.5 59.4z"/></g><g><path fill="#54B948" d="M250.7 59c-0.3 0-0.6-0.3-0.7-0.6l-0.7-5.1c-0.1-0.4 0.2-0.8 0.6-0.8c0.4-0.1 0.8 0.2 0.8 0.6l0.7 5.1 c0.1 0.4-0.2 0.8-0.6 0.8C250.8 59 250.7 59 250.7 59z"/></g><g><path fill="#54B948" d="M253.9 58.5c-0.3 0-0.6-0.3-0.7-0.6l-0.7-5.1c-0.1-0.4 0.2-0.8 0.6-0.8c0.4-0.1 0.8 0.2 0.8 0.6l0.7 5.1 c0.1 0.4-0.2 0.8-0.6 0.8C254 58.5 253.9 58.5 253.9 58.5z"/></g><g><path fill="#54B948" d="M257.1 58.1c-0.3 0-0.6-0.3-0.7-0.6l-0.7-5.1c-0.1-0.4 0.2-0.8 0.6-0.8c0.4-0.1 0.8 0.2 0.8 0.6l0.7 5.1 c0.1 0.4-0.2 0.8-0.6 0.8C257.2 58.1 257.1 58.1 257.1 58.1z"/></g><g><path fill="#54B948" d="M260.3 57.6c-0.3 0-0.6-0.3-0.7-0.6l-0.7-5.1c-0.1-0.4 0.2-0.8 0.6-0.8c0.4-0.1 0.8 0.2 0.8 0.6l0.7 5.1 c0.1 0.4-0.2 0.8-0.6 0.8C260.4 57.6 260.3 57.6 260.3 57.6z"/></g><g><path fill="#54B948" d="M263.5 57.2c-0.3 0-0.6-0.3-0.7-0.6l-0.7-5.1c-0.1-0.4 0.2-0.8 0.6-0.8c0.4-0.1 0.8 0.2 0.8 0.6l0.7 5.1 c0.1 0.4-0.2 0.8-0.6 0.8C263.6 57.2 263.5 57.2 263.5 57.2z"/></g><g><path fill="#54B948" d="M251.6 42.1c-0.3 0-0.6-0.3-0.7-0.6l-1-6.8c-0.1-0.4 0.2-0.8 0.6-0.8c0.4-0.1 0.8 0.2 0.8 0.6l1 6.8 c0.1 0.4-0.2 0.8-0.6 0.8C251.7 42.1 251.6 42.1 251.6 42.1z"/></g><g><path fill="#54B948" d="M254.8 41.7c-0.3 0-0.6-0.3-0.7-0.6l-1.2-8.8c-0.1-0.4 0.2-0.8 0.6-0.8c0.4-0.1 0.8 0.2 0.8 0.6l1.2 8.8 c0.1 0.4-0.2 0.8-0.6 0.8C254.9 41.7 254.8 41.7 254.8 41.7z"/></g><g><path fill="#54B948" d="M258 41.2c-0.3 0-0.6-0.3-0.7-0.6l-1.2-8.8c-0.1-0.4 0.2-0.8 0.6-0.8c0.4-0.1 0.8 0.2 0.8 0.6l1.2 8.8 c0.1 0.4-0.2 0.8-0.6 0.8C258.1 41.2 258 41.2 258 41.2z"/></g><g><path fill="#54B948" d="M266.7 56.7c-0.3 0-0.6-0.3-0.7-0.6l-0.7-5.1c-0.1-0.4 0.2-0.8 0.6-0.8c0.4-0.1 0.8 0.2 0.8 0.6l0.7 5.1 c0.1 0.4-0.2 0.8-0.6 0.8C266.8 56.7 266.7 56.7 266.7 56.7z"/></g><g><path fill="#54B948" d="M261.5 92.6c-0.3 0-0.6-0.3-0.7-0.6l-1.6-11.5c-0.1-0.4 0.2-0.8 0.6-0.8c0.4-0.1 0.8 0.2 0.8 0.6 l1.6 11.5c0.1 0.4-0.2 0.8-0.6 0.8C261.6 92.6 261.6 92.6 261.5 92.6z"/></g><g><path fill="#54B948" d="M265.8 92c-0.3 0-0.6-0.3-0.7-0.6l-1.6-11.5c-0.1-0.4 0.2-0.8 0.6-0.8c0.4-0.1 0.8 0.2 0.8 0.6l1.6 11.5 c0.1 0.4-0.2 0.8-0.6 0.8C265.9 92 265.9 92 265.8 92z"/></g><g><path fill="#54B948" d="M284 156.8c-0.3 0-0.6-0.3-0.7-0.6l-10.1-72.5c-0.1-0.4 0.2-0.8 0.6-0.8c0.4-0.1 0.8 0.2 0.8 0.6 l10.1 72.5c0.1 0.4-0.2 0.8-0.6 0.8C284.1 156.8 284.1 156.8 284 156.8z"/></g><g><path fill="#54B948" d="M216.2 106c-0.1 0-0.3-0.1-0.4-0.2c-0.3-0.3-0.4-0.7-0.1-1.1l3.6-4.4c0.1-0.1 0.3-0.2 0.5-0.3l6.5-0.9 c0.2 0 0.4 0 0.5 0.1l5.2 3.2c0.4 0.2 0.5 0.7 0.2 1c-0.2 0.4-0.7 0.5-1 0.2l-5-3.1l-5.9 0.8l-3.4 4.2 C216.7 106 216.4 106.1 216.2 106z"/></g><g><path fill="#54B948" d="M219.8 101.6c-0.3 0-0.6-0.3-0.7-0.6l-0.5-3.8c-0.1-0.4 0.2-0.8 0.6-0.8c0.4-0.1 0.8 0.2 0.8 0.6l0.5 3.8 c0.1 0.4-0.2 0.8-0.6 0.8C219.9 101.6 219.9 101.6 219.8 101.6z"/></g><g><path fill="#54B948" d="M226 100.7c-0.3 0-0.6-0.3-0.7-0.6l-0.5-3.8c-0.1-0.4 0.2-0.8 0.6-0.8c0.4-0.1 0.8 0.2 0.8 0.6l0.5 3.8 c0.1 0.4-0.2 0.8-0.6 0.8C226.1 100.7 226.1 100.7 226 100.7z"/></g><g><path fill="#54B948" d="M219.7 123.7c-0.1 0-0.3-0.1-0.4-0.1c-0.2-0.1-0.3-0.3-0.3-0.5l-0.8-6c-0.1-0.4 0.2-0.8 0.6-0.8l4.2-0.6 c0.2 0 0.4 0 0.6 0.1c0.2 0.1 0.3 0.3 0.3 0.5l0.8 6c0.1 0.4-0.2 0.8-0.6 0.8l-4.2 0.6C219.8 123.7 219.8 123.7 219.7 123.7z M219.8 117.6l0.6 4.5l2.7-0.4l-0.6-4.5L219.8 117.6z"/></g><g><path fill="#54B948" d="M228.5 122.5c-0.3 0-0.6-0.3-0.7-0.6l-0.8-6c0-0.2 0-0.4 0.1-0.6c0.1-0.2 0.3-0.3 0.5-0.3l4.2-0.6 c0.4-0.1 0.8 0.2 0.8 0.6l0.8 6c0 0.2 0 0.4-0.1 0.6c-0.1 0.2-0.3 0.3-0.5 0.3l-4.2 0.6C228.6 122.5 228.6 122.5 228.5 122.5z M228.6 116.4l0.6 4.5l2.7-0.4l-0.6-4.5L228.6 116.4z"/></g><g><path fill="#54B948" d="M221.6 137.2c-0.1 0-0.3-0.1-0.4-0.1c-0.2-0.1-0.3-0.3-0.3-0.5l-0.8-6c-0.1-0.4 0.2-0.8 0.6-0.8l4.2-0.6 c0.2 0 0.4 0 0.6 0.1c0.2 0.1 0.3 0.3 0.3 0.5l0.8 6c0.1 0.4-0.2 0.8-0.6 0.8l-4.2 0.6C221.7 137.2 221.7 137.2 221.6 137.2z M221.7 131.1l0.6 4.5l2.7-0.4l-0.6-4.5L221.7 131.1z"/></g><g><path fill="#54B948" d="M230.4 136c-0.1 0-0.3-0.1-0.4-0.1c-0.2-0.1-0.3-0.3-0.3-0.5l-0.8-6c-0.1-0.4 0.2-0.8 0.6-0.8l4.2-0.6 c0.2 0 0.4 0 0.6 0.1c0.2 0.1 0.3 0.3 0.3 0.5l0.8 6c0.1 0.4-0.2 0.8-0.6 0.8l-4.2 0.6C230.5 136 230.5 136 230.4 136z M230.5 129.9l0.6 4.5l2.7-0.4l-0.6-4.5L230.5 129.9z"/></g><g><path fill="#54B948" d="M223.4 149.7c-0.3 0-0.6-0.3-0.7-0.6l-0.8-6c0-0.2 0-0.4 0.1-0.6c0.1-0.2 0.3-0.3 0.5-0.3l4.2-0.6 c0.4-0.1 0.8 0.2 0.8 0.6l0.8 6c0 0.2 0 0.4-0.1 0.6c-0.1 0.2-0.3 0.3-0.5 0.3l-4.2 0.6C223.5 149.7 223.4 149.7 223.4 149.7z M223.4 143.6l0.6 4.5l2.7-0.4l-0.6-4.5L223.4 143.6z"/></g><g><path fill="#54B948" d="M232.2 148.4c-0.1 0-0.3-0.1-0.4-0.1c-0.2-0.1-0.3-0.3-0.3-0.5l-0.8-6c-0.1-0.4 0.2-0.8 0.6-0.8l4.2-0.6 c0.2 0 0.4 0 0.6 0.1s0.3 0.3 0.3 0.5l0.8 6c0.1 0.4-0.2 0.8-0.6 0.8l-4.2 0.6C232.3 148.4 232.2 148.4 232.2 148.4z M232.2 142.3l0.6 4.5l2.7-0.4L235 142L232.2 142.3z"/></g><g><path fill="#54B948" d="M225.1 162.1c-0.1 0-0.3-0.1-0.4-0.1c-0.2-0.1-0.3-0.3-0.3-0.5l-0.8-6c-0.1-0.4 0.2-0.8 0.6-0.8l4.2-0.6 c0.2 0 0.4 0 0.6 0.1c0.2 0.1 0.3 0.3 0.3 0.5l0.8 6c0.1 0.4-0.2 0.8-0.6 0.8l-4.2 0.6C225.2 162.1 225.2 162.1 225.1 162.1z M225.2 156l0.6 4.5l2.7-0.4l-0.6-4.5L225.2 156z"/></g><g><path fill="#54B948" d="M233.9 160.9c-0.1 0-0.3-0.1-0.4-0.1c-0.2-0.1-0.3-0.3-0.3-0.5l-0.8-6c-0.1-0.4 0.2-0.8 0.6-0.8l4.2-0.6 c0.2 0 0.4 0 0.6 0.1s0.3 0.3 0.3 0.5l0.8 6c0.1 0.4-0.2 0.8-0.6 0.8l-4.2 0.6C234 160.9 234 160.9 233.9 160.9z M234 154.8 l0.6 4.5l2.7-0.4l-0.6-4.5L234 154.8z"/></g><g><path fill="#54B948" d="M246.4 133.7c-0.1 0-0.3-0.1-0.4-0.1c-0.2-0.1-0.3-0.3-0.3-0.5l-0.8-6c-0.1-0.4 0.2-0.8 0.6-0.8l4.2-0.6 c0.2 0 0.4 0 0.6 0.1c0.2 0.1 0.3 0.3 0.3 0.5l0.8 6c0.1 0.4-0.2 0.8-0.6 0.8l-4.2 0.6C246.5 133.7 246.5 133.7 246.4 133.7z M246.5 127.6l0.6 4.5l2.7-0.4l-0.6-4.5L246.5 127.6z"/></g><g><path fill="#54B948" d="M248.2 146.2c-0.3 0-0.6-0.3-0.7-0.6l-0.8-6c0-0.2 0-0.4 0.1-0.6c0.1-0.2 0.3-0.3 0.5-0.3l4.2-0.6 c0.4-0.1 0.8 0.2 0.8 0.6l0.8 6c0 0.2 0 0.4-0.1 0.6c-0.1 0.2-0.3 0.3-0.5 0.3l-4.2 0.6C248.3 146.2 248.2 146.2 248.2 146.2z M248.2 140.1l0.6 4.5l2.7-0.4l-0.6-4.5L248.2 140.1z"/></g><g><path fill="#54B948" d="M249.9 158.7c-0.1 0-0.3-0.1-0.4-0.1c-0.2-0.1-0.3-0.3-0.3-0.5l-0.8-6c-0.1-0.4 0.2-0.8 0.6-0.8l4.2-0.6 c0.2 0 0.4 0 0.6 0.1c0.2 0.1 0.3 0.3 0.3 0.5l0.8 6c0.1 0.4-0.2 0.8-0.6 0.8l-4.2 0.6C250 158.7 250 158.7 249.9 158.7z M250 152.6l0.6 4.5l2.7-0.4l-0.6-4.5L250 152.6z"/></g><g><path fill="#54B948" d="M253.1 78.8c-0.3 0-0.6-0.3-0.7-0.6L250 61.3c-0.1-0.4 0.2-0.8 0.6-0.8l17-2.4c0.2 0 0.4 0 0.6 0.1 c0.2 0.1 0.3 0.3 0.3 0.5l2.4 16.8c0 0.2 0 0.4-0.1 0.6c-0.1 0.2-0.3 0.3-0.5 0.3l-17 2.4C253.2 78.8 253.1 78.8 253.1 78.8z M251.6 61.9l2.1 15.3l15.5-2.2l-2.1-15.3L251.6 61.9z"/></g><g><path fill="#54B948" d="M248.9 82.4c-0.1 0-0.3-0.1-0.4-0.1c-0.2-0.1-0.3-0.3-0.3-0.5L245.1 59c-0.1-0.4 0.2-0.8 0.6-0.8 l26.1-3.7c0.2 0 0.4 0 0.6 0.1c0.2 0.1 0.3 0.3 0.3 0.5l3.2 22.7c0.1 0.4-0.2 0.8-0.6 0.8l-26.1 3.7 C249 82.4 249 82.4 248.9 82.4z M246.7 59.6l3 21.2l24.6-3.4l-3-21.2L246.7 59.6z"/></g><g><path fill="#54B948" d="M261.2 40.8c-0.3 0-0.6-0.3-0.7-0.6l-0.9-6.5l-1.5-1.4l-5.3 0.7l-1.6 1.9c-0.3 0.3-0.7 0.4-1.1 0.1 c-0.3-0.3-0.4-0.7-0.1-1.1l1.8-2.1c0.1-0.1 0.3-0.2 0.5-0.3l5.9-0.8c0.2 0 0.5 0 0.6 0.2l1.9 1.8c0.1 0.1 0.2 0.3 0.2 0.4l1 6.8 c0.1 0.4-0.2 0.8-0.6 0.8C261.3 40.8 261.2 40.8 261.2 40.8z"/></g><g><path fill="#54B948" d="M252.1 33.4c-0.3 0-0.6-0.3-0.7-0.6l-0.4-3c0-0.1 0-0.1 0-0.2l1.4-14.3c0-0.3 0.3-0.6 0.6-0.7 c0.3 0 0.7 0.1 0.8 0.5l5.3 13.3c0 0.1 0 0.1 0 0.2l0.4 2.9c0.1 0.4-0.2 0.8-0.6 0.8c-0.4 0.1-0.8-0.2-0.8-0.6l-0.4-2.8 l-4.1-10.3l-1.1 11.1l0.4 2.9c0.1 0.4-0.2 0.8-0.6 0.8C252.2 33.4 252.1 33.4 252.1 33.4z"/></g><g><path fill="#54B948" d="M259.9 75.6c-3.3-0.3-5.9-2.8-6.4-6.1c-0.3-1.9 0.2-3.8 1.4-5.3s2.8-2.5 4.7-2.8c0.5-0.1 1.1-0.1 1.6 0 c3.3 0.3 5.9 2.8 6.4 6.1c0.3 1.9-0.2 3.8-1.4 5.3c-1.1 1.5-2.8 2.5-4.7 2.8C261 75.6 260.5 75.6 259.9 75.6z M261.1 62.9 c-0.4 0-0.9 0-1.3 0c-1.5 0.2-2.8 1-3.7 2.2c-0.9 1.2-1.3 2.7-1.1 4.2c0.4 2.6 2.4 4.6 5 4.8c0.4 0 0.9 0 1.3 0 c1.5-0.2 2.8-1 3.7-2.2c0.9-1.2 1.3-2.7 1.1-4.2C265.7 65.1 263.7 63.1 261.1 62.9z"/></g><g><path fill="#54B948" d="M260.5 69.2c-0.1 0-0.3-0.1-0.4-0.1l-3.2-2.4c-0.3-0.3-0.4-0.7-0.1-1.1c0.2-0.3 0.7-0.4 1.1-0.1l2.9 2.2 l2.4-0.3c0.4-0.1 0.8 0.2 0.8 0.6c0.1 0.4-0.2 0.8-0.6 0.8l-2.7 0.4C260.6 69.2 260.5 69.3 260.5 69.2z"/></g></g><g><g><path fill="#55B949" d="M576.2 90.3l4 3.3c0 0 0 0 0 0.1l0 1.8c0 0 0 0.1 0 0.1c0 0-0.1 0-0.1 0l-3.9-3.3l-3.9 3.6c0 0 0 0-0.1 0 c0 0 0 0 0-0.1l0-1.8c0 0 0 0 0 0l2.9-2.6c0 0 0 0 0 0L576.2 90.3C576.1 90.3 576.2 90.3 576.2 90.3"/></g><g><path fill="#55B949" d="M574.8 63.8l-3.5 3.9c0 0 0 0-0.1 0l-1.8 0c0 0-0.1 0-0.1 0c0 0 0-0.1 0-0.1l3.5-3.8l-3.4-4 c0 0 0 0 0-0.1c0 0 0 0 0.1 0l1.8 0c0 0 0 0 0 0l2.5 3c0 0 0 0 0 0L574.8 63.8C574.9 63.7 574.9 63.8 574.8 63.8"/></g><g><g><path fill="#55B949" d="M521.5 131.7c-0.1 0-0.2 0-0.3-0.1c-0.4-0.2-0.7-0.7-0.5-1.1l10.7-27.5l-4.4-16.6 c-0.1-0.4-1.6-7.8 3.8-14.4c5-6.2 14.2-9.3 27.4-9.3l15.1 0c0 0 0 0 0 0c0.5 0 0.9 0.4 0.9 0.9c0 0.5-0.4 0.9-0.9 0.9l-15.1 0 c-12.6 0-21.3 2.9-26 8.7c-4.8 5.9-3.4 12.8-3.4 12.9l4.5 16.8c0 0.2 0 0.4 0 0.5l-10.8 27.8 C522.2 131.5 521.8 131.7 521.5 131.7z"/></g><g><path fill="#55B949" d="M523.9 138.9c-0.4 0-0.7-0.2-0.8-0.6l-2.4-7.2c-0.2-0.5 0.1-0.9 0.6-1.1c0.5-0.1 0.9 0.1 1.1 0.6 l2.2 6.6l5.4-0.2l12-29.5c0.2-0.4 0.6-0.6 1-0.5c0.2 0 20 4.1 35.5-2.1c0.4-0.2 1 0 1.1 0.5c0.2 0.4 0 1-0.5 1.1 c-14.4 5.8-32 3.1-35.8 2.3l-11.9 29.3c-0.1 0.3-0.4 0.5-0.8 0.5L523.9 138.9C523.9 138.9 523.9 138.9 523.9 138.9z"/></g><g><path fill="#55B949" d="M612.9 94.5C612.9 94.5 612.9 94.5 612.9 94.5c-24.6-0.7-33.7-24.7-33.8-25c-0.1-0.2-0.1-0.4 0-0.6 c0.2-0.5 5.4-12.2 14.7-13.6c7.6-1.1 14.1 2.8 16.2 4.2c1.1-1.1 3.8-3.2 8.5-3.2c0 0 0 0 0 0c11.3 0 16.3 15.7 16.7 17 c0.2 0.4 0.9 1.7 2.4 1.2c1.5-0.5 2.2-2 1.3-7.6c-0.2-1-0.5-2-0.8-3.1c-1.3-4.7-2.9-10.6 4.2-14.7c0.4-0.2 0.9-0.1 1.2 0.3 l1.9 2.9c0.1 0.2 0.2 0.5 0.1 0.7s-0.2 0.4-0.5 0.5c-0.2 0.1-2.2 1.2-1.4 4.2c0.1 0.4 0.4 1.1 0.7 2c1.7 4.7 5.2 14.3 1.4 20.7 c-1.8 3.1-5 5-9.6 5.7c-3.4 0.5-5.9 0.1-7.6-1.4c-1.2-1.1-1.7-2.4-1.9-3.3l-1.8 0c-0.5 0-0.9-0.4-0.9-0.9c0-0.5 0.4-0.9 0.9-0.9 c0 0 0 0 0 0l2.5 0c0.5 0 0.9 0.4 0.9 0.9c0 0.1 0 1.7 1.4 2.8c1.3 1.1 3.4 1.4 6.2 1c4-0.6 6.8-2.3 8.3-4.8 c3.4-5.7 0-14.9-1.6-19.3c-0.3-0.9-0.6-1.6-0.7-2.1c-0.8-2.9 0.4-4.8 1.5-5.7l-0.9-1.5c-5.2 3.4-3.9 7.9-2.7 12.3 c0.3 1.1 0.6 2.2 0.8 3.3c0.8 5 0.8 8.5-2.4 9.6c-2.5 0.8-4.1-1-4.5-2.2c0 0 0-0.1 0-0.1c0-0.2-4.8-15.8-15-15.8c0 0 0 0 0 0 c-5.4 0-7.6 3-7.7 3.1c-0.1 0.2-0.3 0.3-0.6 0.4c-0.2 0-0.5 0-0.7-0.2c-0.1-0.1-7.3-5.6-15.5-4.4c-7.6 1.1-12.4 10.4-13.3 12.3 c1.1 2.8 9.9 22.3 31.1 23.5l0-10.5c0-0.5 0.4-0.9 0.9-0.9c0 0 0 0 0 0c0.5 0 0.9 0.4 0.9 0.9l0 11.4c0 0.2-0.1 0.5-0.3 0.6 C613.4 94.5 613.2 94.5 612.9 94.5z"/></g><g><path fill="#55B949" d="M628.6 92.8c-0.9 0-2.8-0.2-4.2-1.4c-1-0.9-1.6-2.2-1.8-3.8c-2.2-0.1-7.8-0.6-9.5-3.1 c-2.1-3-3.5-8.1-3.5-8.4c-0.1-0.5 0.1-0.9 0.6-1.1c0.5-0.1 0.9 0.1 1.1 0.6c0 0.1 1.4 5 3.3 7.8c1.1 1.7 6.1 2.3 8.9 2.4 c0.5 0 0.9 0.4 0.9 0.9c0 1.5 0.4 2.6 1.2 3.3c0.8 0.7 1.9 0.9 2.7 1l0-7c0-0.5 0.4-0.9 0.9-0.9c0 0 0 0 0 0 c0.5 0 0.9 0.4 0.9 0.9l0 7.9c0 0.4-0.3 0.8-0.8 0.9C629.2 92.8 629 92.8 628.6 92.8z"/></g><g><path fill="#55B949" d="M620.2 74.5c-2 0-3.7-1.6-3.7-3.7c0-1 0.4-1.9 1.1-2.6s1.6-1.1 2.6-1.1c2 0 3.7 1.6 3.7 3.7 c0 1-0.4 1.9-1.1 2.6C622.1 74.1 621.2 74.5 620.2 74.5C620.2 74.5 620.2 74.5 620.2 74.5z M620.2 68.9c-0.5 0-1 0.2-1.4 0.6 c-0.4 0.4-0.6 0.9-0.6 1.4c0 1.1 0.9 1.9 1.9 1.9v0.9l0-0.9c0.5 0 1-0.2 1.4-0.6c0.4-0.4 0.6-0.9 0.6-1.4 C622.1 69.8 621.2 68.9 620.2 68.9z"/></g><g><path fill="#55B949" d="M604.6 136.8c-0.2 0-0.5-0.1-0.6-0.3c-0.2-0.2-0.3-0.4-0.3-0.6l0-12.5l-14.3-9.8 c-0.4-0.3-0.5-0.8-0.2-1.2c0.3-0.4 0.8-0.5 1.2-0.2l14.7 10c0.2 0.2 0.4 0.4 0.4 0.7l0 12.1l3 0l3.7-4.4l0-13.4l-10.5-9.3 c-0.2-0.2-0.3-0.4-0.3-0.7l0-15.4c0-0.5 0.4-0.9 0.9-0.9c0.5 0 0.9 0.4 0.9 0.9l0 15l10.5 9.3c0.2 0.2 0.3 0.4 0.3 0.7l0 14.1 c0 0.2-0.1 0.4-0.2 0.6l-4.1 4.9c-0.2 0.2-0.4 0.3-0.7 0.3L604.6 136.8C604.6 136.8 604.6 136.8 604.6 136.8z"/></g><g><path fill="#55B949" d="M578.1 137.2C578.1 137.2 578 137.2 578.1 137.2c-0.6 0-0.9-0.5-0.9-1l2.5-26.9 c-0.9-1.5-4.8-8.7-4.3-17.3c0-0.5 0.4-0.8 0.9-0.8c0.5 0 0.8 0.4 0.8 0.9c-0.5 8.9 4.2 16.5 4.2 16.6c0.1 0.2 0.1 0.4 0.1 0.5 l-2.6 27.2C578.9 136.9 578.5 137.2 578.1 137.2z"/></g><g><path fill="#55B949" d="M587.9 136.8C587.9 136.8 587.9 136.8 587.9 136.8c-0.6 0-0.9-0.5-0.9-0.9l2.6-31.6 c0-0.2 0.1-0.4 0.2-0.5l5.6-6.6c0.3-0.4 0.9-0.4 1.2-0.1c0.4 0.3 0.4 0.9 0.1 1.2l-5.4 6.4l-2.6 31.3 C588.8 136.4 588.4 136.8 587.9 136.8z"/></g><g><path fill="#55B949" d="M569.1 137.2c-0.3 0-0.6-0.2-0.8-0.5l-9.8-19.2c-0.1-0.2-0.1-0.4-0.1-0.6l2.2-8.1 c0.1-0.5 0.6-0.7 1.1-0.6c0.5 0.1 0.7 0.6 0.6 1.1l-2.1 7.7l9.7 18.9c0.2 0.4 0.1 1-0.4 1.2 C569.4 137.2 569.3 137.2 569.1 137.2z"/></g><g><path fill="#55B949" d="M558 138c-0.3 0-0.7-0.2-0.8-0.5l-12.7-28.9c-0.2-0.4 0-1 0.4-1.1c0.4-0.2 1 0 1.1 0.4l12.7 28.9 c0.2 0.4 0 1-0.4 1.1C558.2 138 558.1 138 558 138z"/></g><g><path fill="#55B949" d="M522.5 87c-0.1 0-0.2 0-0.3 0c-0.5-0.1-0.7-0.6-0.6-1.1l1-3.2c0.1-0.2 0.2-0.4 0.4-0.5l3.9-2.3 c0.4-0.2 0.9-0.1 1.2 0.3c0.2 0.4 0.1 0.9-0.3 1.2l-3.6 2.2l-0.9 2.9C523.3 86.7 522.9 87 522.5 87z"/></g></g></g><g><path fill="#55B949" d="M1346.9 221c-0.1 0-0.2 0-0.4-0.1c-54.3-24.6-145.4-45.6-263.4-60.7c-120.9-15.4-262.4-23.6-409.3-23.6 c-146.8 0-288.3 8.2-409.2 23.6c-118 15.1-209 36-263.4 60.6c-0.4 0.2-1 0-1.1-0.4c-0.2-0.4 0-1 0.4-1.1 c54.5-24.7 145.8-45.7 263.9-60.8C385.3 143.1 526.9 135 673.8 135c147 0 288.6 8.2 409.5 23.6c118.2 15.1 209.4 36.1 263.9 60.8 c0.4 0.2 0.6 0.7 0.4 1.1C1347.5 220.9 1347.2 221 1346.9 221z"/></g></g></svg>